<?xml version="1.0" encoding="utf-8"?>
<!-- Generator: $$$/GeneralStr/196=Adobe Illustrator 27.6.0, SVG Export Plug-In . SVG Version: 6.00 Build 0)  -->
<svg version="1.1" id="Logo" xmlns="http://www.w3.org/2000/svg" xmlns:xlink="http://www.w3.org/1999/xlink" x="0px" y="0px"
	 viewBox="0 0 465.9 287.3" style="enable-background:new 0 0 465.9 287.3;" xml:space="preserve">
<style type="text/css">
	.st0{fill:#00B8DE;}
</style>
<g>
	<g>
		<g>
			<path d="M9.2,149.5v38.8H0.6v-38.8H9.2z"/>
			<path d="M28.7,149.5l9.1,26.7h0.1l8.6-26.7h12v38.8h-8v-27.5h-0.1l-9.5,27.5h-6.6l-9.5-27.2h-0.1v27.2h-8v-38.8H28.7z"/>
			<path d="M62.9,156.7v-7.2h31.8v7.2H83.1v31.6h-8.5v-31.6H62.9z"/>
			<path d="M133.7,149.5l14.5,38.8h-8.9l-2.9-8.6h-14.5l-3,8.6h-8.6l14.7-38.8H133.7z M134.2,173.4l-4.9-14.2h-0.1l-5.1,14.2H134.2z
				"/>
			<path d="M166.2,160.2v5.2h-5.7v13.9c0,1.3,0.2,2.2,0.7,2.6c0.4,0.4,1.3,0.7,2.6,0.7c0.4,0,0.9,0,1.3-0.1c0.4,0,0.8-0.1,1.1-0.2v6
				c-0.7,0.1-1.4,0.2-2.2,0.2c-0.8,0-1.6,0.1-2.3,0.1c-1.2,0-2.3-0.1-3.4-0.2c-1.1-0.2-2-0.5-2.8-1c-0.8-0.5-1.5-1.1-1.9-2
				c-0.5-0.9-0.7-2-0.7-3.4v-16.6h-4.7v-5.2h4.7v-8.4h7.7v8.4H166.2z"/>
			<path d="M177.8,149.5v38.8h-7.7v-38.8H177.8z"/>
			<path d="M183.6,168.9c0.1-1.8,0.6-3.3,1.4-4.5c0.8-1.2,1.8-2.2,3-2.9c1.2-0.7,2.6-1.2,4.2-1.5c1.5-0.3,3.1-0.5,4.6-0.5
				c1.4,0,2.8,0.1,4.3,0.3c1.4,0.2,2.8,0.6,4,1.2c1.2,0.6,2.2,1.4,2.9,2.4c0.8,1,1.1,2.4,1.1,4.1v14.6c0,1.3,0.1,2.5,0.2,3.6
				c0.1,1.2,0.4,2,0.8,2.6h-7.8c-0.1-0.4-0.3-0.9-0.4-1.3c-0.1-0.5-0.2-0.9-0.2-1.4c-1.2,1.3-2.7,2.2-4.3,2.7
				c-1.7,0.5-3.4,0.8-5.1,0.8c-1.3,0-2.6-0.2-3.8-0.5c-1.2-0.3-2.2-0.8-3-1.5c-0.9-0.7-1.5-1.6-2-2.6c-0.5-1.1-0.7-2.3-0.7-3.8
				c0-1.6,0.3-2.9,0.8-3.9c0.6-1,1.3-1.9,2.2-2.5c0.9-0.6,1.9-1.1,3-1.4c1.1-0.3,2.3-0.6,3.5-0.7c1.2-0.2,2.3-0.3,3.4-0.4
				c1.1-0.1,2.1-0.3,3-0.5c0.9-0.2,1.6-0.5,2.1-1c0.5-0.4,0.7-1,0.7-1.8c0-0.8-0.1-1.5-0.4-2c-0.3-0.5-0.6-0.9-1.1-1.1
				c-0.5-0.3-1-0.5-1.6-0.5c-0.6-0.1-1.2-0.1-1.9-0.1c-1.5,0-2.7,0.3-3.6,1c-0.9,0.7-1.4,1.7-1.5,3.3H183.6z M201.4,174.6
				c-0.3,0.3-0.7,0.5-1.2,0.7c-0.5,0.2-1,0.3-1.6,0.4c-0.6,0.1-1.2,0.2-1.8,0.3c-0.6,0.1-1.2,0.2-1.8,0.3c-0.6,0.1-1.2,0.3-1.7,0.4
				c-0.6,0.2-1.1,0.4-1.5,0.7c-0.4,0.3-0.8,0.7-1,1.2c-0.3,0.5-0.4,1.1-0.4,1.8c0,0.7,0.1,1.3,0.4,1.7c0.3,0.5,0.6,0.8,1,1.1
				c0.4,0.3,0.9,0.5,1.5,0.6c0.6,0.1,1.2,0.2,1.8,0.2c1.5,0,2.7-0.3,3.5-0.8c0.8-0.5,1.4-1.1,1.8-1.8c0.4-0.7,0.6-1.4,0.7-2.1
				c0.1-0.7,0.1-1.3,0.1-1.7V174.6z"/>
			<path d="M222.4,160.2v3.9h0.2c1-1.6,2.2-2.8,3.8-3.6c1.6-0.7,3.2-1.1,4.8-1.1c2.1,0,3.8,0.3,5.1,0.8c1.3,0.6,2.4,1.3,3.1,2.3
				c0.8,1,1.3,2.2,1.6,3.6c0.3,1.4,0.5,3,0.5,4.8v17.3h-7.7v-15.9c0-2.3-0.4-4-1.1-5.2c-0.7-1.1-2-1.7-3.9-1.7
				c-2.1,0-3.6,0.6-4.6,1.9c-0.9,1.3-1.4,3.3-1.4,6.2v14.7h-7.7v-28.1H222.4z"/>
			<path d="M262.8,160.2v5.2h-5.7v13.9c0,1.3,0.2,2.2,0.7,2.6c0.4,0.4,1.3,0.7,2.6,0.7c0.4,0,0.9,0,1.3-0.1c0.4,0,0.8-0.1,1.1-0.2v6
				c-0.7,0.1-1.4,0.2-2.2,0.2c-0.8,0-1.6,0.1-2.3,0.1c-1.2,0-2.3-0.1-3.4-0.2c-1.1-0.2-2-0.5-2.8-1c-0.8-0.5-1.5-1.1-1.9-2
				c-0.5-0.9-0.7-2-0.7-3.4v-16.6h-4.7v-5.2h4.7v-8.4h7.7v8.4H262.8z"/>
			<path d="M266.7,155.9v-6.4h7.7v6.4H266.7z M274.4,160.2v28.1h-7.7v-28.1H274.4z"/>
			<path d="M300.2,198.2v-13.4h-0.1c-0.9,1.5-2.2,2.6-3.8,3.3c-1.6,0.7-3.3,1-5.1,1c-1.3,0-2.7-0.2-4-0.7c-1.4-0.5-2.7-1.3-3.8-2.4
				c-1.2-1.1-2.1-2.6-2.9-4.5c-0.8-1.9-1.1-4.2-1.1-6.9c0-1.9,0.3-3.8,0.8-5.6c0.5-1.8,1.3-3.4,2.3-4.8c1.1-1.4,2.4-2.5,3.9-3.3
				c1.6-0.8,3.4-1.3,5.6-1.3c1.7,0,3.4,0.3,4.9,1c1.5,0.7,2.7,1.8,3.6,3.3h0.1v-3.6h7.3v37.9H300.2z M287.4,177.6
				c0.2,1.1,0.6,2,1.1,2.9c0.5,0.9,1.2,1.5,2.1,2c0.9,0.5,1.9,0.8,3.2,0.8c1.3,0,2.3-0.2,3.2-0.7c0.9-0.5,1.5-1.1,2.1-2
				c0.5-0.8,0.9-1.8,1.1-2.8c0.2-1.1,0.4-2.2,0.4-3.3c0-1.1-0.1-2.2-0.4-3.3c-0.2-1.1-0.6-2.1-1.1-2.9c-0.5-0.9-1.2-1.6-2-2.1
				c-0.9-0.5-1.9-0.8-3.1-0.8c-1.3,0-2.3,0.3-3.2,0.8c-0.9,0.5-1.6,1.2-2.1,2c-0.5,0.9-0.9,1.8-1.2,2.9c-0.2,1.1-0.4,2.2-0.4,3.3
				C287,175.5,287.1,176.6,287.4,177.6z"/>
			<path d="M332.8,188.4v-3.9h-0.2c-1,1.6-2.2,2.8-3.8,3.5c-1.6,0.7-3.2,1.1-4.8,1.1c-2.1,0-3.8-0.3-5.1-0.8
				c-1.3-0.5-2.4-1.3-3.1-2.3c-0.8-1-1.3-2.2-1.6-3.6c-0.3-1.4-0.5-3-0.5-4.8v-17.3h7.7v15.9c0,2.3,0.4,4.1,1.1,5.2
				c0.7,1.1,2,1.7,3.9,1.7c2.1,0,3.6-0.6,4.6-1.9c0.9-1.3,1.4-3.3,1.4-6.2v-14.7h7.7v28.1H332.8z"/>
			<path d="M354.2,181.6c1.2,1.1,2.8,1.7,5,1.7c1.6,0,2.9-0.4,4-1.2c1.1-0.8,1.8-1.6,2.1-2.5h6.8c-1.1,3.4-2.8,5.8-5,7.2
				c-2.2,1.5-5,2.2-8.2,2.2c-2.2,0-4.2-0.4-6-1.1s-3.3-1.7-4.5-3c-1.2-1.3-2.2-2.9-2.9-4.7c-0.7-1.8-1-3.8-1-6c0-2.1,0.3-4.1,1-5.9
				c0.7-1.8,1.7-3.4,2.9-4.7c1.3-1.3,2.8-2.4,4.5-3.1c1.8-0.8,3.7-1.1,5.8-1.1c2.4,0,4.5,0.5,6.3,1.4c1.8,0.9,3.2,2.2,4.4,3.7
				c1.1,1.6,2,3.3,2.5,5.3c0.5,2,0.7,4.1,0.5,6.3h-20.3C352.4,178.7,353.1,180.5,354.2,181.6z M363,166.8c-0.9-1-2.3-1.5-4.2-1.5
				c-1.2,0-2.3,0.2-3.1,0.6c-0.8,0.4-1.5,0.9-2,1.5c-0.5,0.6-0.8,1.3-1,2c-0.2,0.7-0.3,1.3-0.4,1.8h12.6
				C364.5,169.3,363.9,167.8,363,166.8z"/>
			<path d="M0,208.3h14.2c2.6,0,4.7,0.6,6.3,1.8c1.6,1.2,2.4,3,2.4,5.5c0,1.5-0.4,2.7-1.1,3.8c-0.7,1.1-1.8,1.9-3.1,2.4v0.1
				c1.8,0.4,3.2,1.2,4.1,2.6c0.9,1.3,1.4,3,1.4,5c0,1.1-0.2,2.2-0.6,3.2c-0.4,1-1.1,1.9-1.9,2.6c-0.9,0.7-2,1.3-3.4,1.7
				c-1.4,0.4-3,0.6-4.9,0.6H0V208.3z M5.1,220.5h8.4c1.2,0,2.3-0.3,3.1-1c0.8-0.7,1.2-1.7,1.2-3c0-1.5-0.4-2.5-1.1-3.1
				c-0.7-0.6-1.8-0.9-3.2-0.9H5.1V220.5z M5.1,233.3h9.1c1.6,0,2.8-0.4,3.6-1.2c0.9-0.8,1.3-1.9,1.3-3.4c0-1.4-0.4-2.6-1.3-3.3
				c-0.9-0.8-2.1-1.2-3.6-1.2H5.1V233.3z"/>
			<path d="M27.4,216.3h4.4v4.1h0.1c0.1-0.6,0.4-1.1,0.8-1.7c0.4-0.5,0.9-1,1.4-1.5c0.6-0.5,1.2-0.8,1.9-1.1
				c0.7-0.3,1.4-0.4,2.1-0.4c0.5,0,0.9,0,1.1,0c0.2,0,0.4,0.1,0.6,0.1v4.5c-0.3-0.1-0.7-0.1-1-0.1c-0.3,0-0.7-0.1-1-0.1
				c-0.8,0-1.5,0.2-2.2,0.5c-0.7,0.3-1.3,0.8-1.8,1.4c-0.5,0.6-0.9,1.4-1.2,2.3c-0.3,0.9-0.5,1.9-0.5,3.1v10.1h-4.7V216.3z"/>
			<path d="M43.9,228.1c0,0.8,0.1,1.6,0.3,2.4c0.2,0.8,0.6,1.4,1,2c0.5,0.6,1.1,1,1.8,1.4c0.7,0.3,1.6,0.5,2.5,0.5
				c1.4,0,2.5-0.3,3.3-0.9s1.5-1.5,1.9-2.6h4.4c-0.2,1.1-0.7,2.2-1.3,3.1c-0.6,0.9-1.3,1.7-2.2,2.3c-0.8,0.6-1.8,1.1-2.8,1.4
				c-1.1,0.3-2.2,0.5-3.3,0.5c-1.7,0-3.1-0.3-4.4-0.8c-1.3-0.5-2.4-1.3-3.3-2.3c-0.9-1-1.6-2.2-2-3.5c-0.5-1.4-0.7-2.9-0.7-4.5
				c0-1.5,0.2-2.9,0.7-4.3c0.5-1.4,1.2-2.5,2-3.6c0.9-1,2-1.8,3.2-2.4c1.3-0.6,2.7-0.9,4.3-0.9c1.7,0,3.2,0.3,4.5,1
				c1.3,0.7,2.4,1.6,3.3,2.8c0.9,1.1,1.5,2.5,1.9,4c0.4,1.5,0.5,3,0.3,4.6H43.9z M54.8,225.1c-0.1-0.7-0.2-1.4-0.5-2.1
				c-0.3-0.7-0.6-1.3-1.1-1.8c-0.5-0.5-1-0.9-1.6-1.2c-0.6-0.3-1.4-0.5-2.2-0.5c-0.8,0-1.6,0.1-2.2,0.4c-0.7,0.3-1.2,0.7-1.7,1.2
				c-0.5,0.5-0.9,1.1-1.1,1.8c-0.3,0.7-0.4,1.4-0.5,2.2H54.8z"/>
			<path d="M60.1,216.3h3.5V210h4.7v6.4h4.2v3.5h-4.2v11.3c0,0.5,0,0.9,0.1,1.3c0,0.4,0.1,0.7,0.3,0.9c0.1,0.2,0.4,0.4,0.7,0.6
				c0.3,0.1,0.7,0.2,1.2,0.2c0.3,0,0.7,0,1,0c0.3,0,0.7-0.1,1-0.1v3.6c-0.5,0.1-1,0.1-1.5,0.2c-0.5,0.1-1,0.1-1.5,0.1
				c-1.2,0-2.2-0.1-3-0.3c-0.8-0.2-1.3-0.6-1.8-1c-0.4-0.5-0.7-1-0.9-1.7c-0.1-0.7-0.2-1.5-0.3-2.3v-12.5h-3.5V216.3z"/>
			<path d="M92.8,232.8c0,0.6,0.1,1,0.2,1.2c0.1,0.2,0.4,0.4,0.9,0.4c0.1,0,0.3,0,0.5,0c0.2,0,0.4,0,0.7-0.1v3.2
				c-0.2,0.1-0.4,0.1-0.6,0.2c-0.3,0.1-0.5,0.1-0.8,0.2c-0.3,0.1-0.5,0.1-0.8,0.1c-0.3,0-0.5,0-0.7,0c-1,0-1.7-0.2-2.4-0.6
				s-1-1.1-1.2-2c-0.9,0.9-2.1,1.6-3.4,2c-1.4,0.4-2.7,0.6-3.9,0.6c-1,0-1.9-0.1-2.7-0.4c-0.9-0.3-1.6-0.6-2.3-1.1
				c-0.7-0.5-1.2-1.1-1.6-1.9c-0.4-0.8-0.6-1.7-0.6-2.7c0-1.3,0.2-2.4,0.7-3.2c0.5-0.8,1.1-1.5,1.9-1.9c0.8-0.5,1.7-0.8,2.6-1
				c1-0.2,1.9-0.4,2.9-0.5c0.8-0.2,1.7-0.3,2.4-0.3c0.8-0.1,1.4-0.2,2-0.3s1.1-0.4,1.4-0.8s0.5-0.9,0.5-1.5c0-0.6-0.1-1.1-0.4-1.5
				c-0.3-0.4-0.6-0.7-1.1-0.9c-0.4-0.2-0.9-0.3-1.4-0.4c-0.5-0.1-1-0.1-1.5-0.1c-1.3,0-2.4,0.3-3.2,0.8c-0.8,0.5-1.3,1.4-1.4,2.5
				h-4.7c0.1-1.4,0.4-2.5,1-3.4c0.6-0.9,1.3-1.6,2.2-2.2c0.9-0.5,1.9-0.9,3-1.1c1.1-0.2,2.3-0.3,3.4-0.3c1,0,2.1,0.1,3.1,0.3
				c1,0.2,1.9,0.6,2.7,1.1c0.8,0.5,1.5,1.1,1.9,1.9c0.5,0.8,0.7,1.7,0.7,2.8V232.8z M88.1,226.9c-0.7,0.5-1.6,0.7-2.6,0.8
				c-1,0.1-2.1,0.2-3.1,0.4c-0.5,0.1-1,0.2-1.4,0.3c-0.5,0.2-0.9,0.4-1.2,0.6c-0.4,0.3-0.6,0.6-0.8,1c-0.2,0.4-0.3,0.9-0.3,1.5
				c0,0.5,0.1,1,0.5,1.3c0.3,0.4,0.7,0.6,1.1,0.8c0.4,0.2,0.9,0.3,1.4,0.4c0.5,0.1,1,0.1,1.4,0.1c0.5,0,1.1-0.1,1.7-0.2
				c0.6-0.1,1.2-0.4,1.7-0.7c0.5-0.3,1-0.7,1.3-1.3c0.4-0.5,0.5-1.1,0.5-1.9V226.9z"/>
			<path d="M116.6,236.4c0,3.2-0.9,5.6-2.7,7.1c-1.8,1.6-4.4,2.4-7.7,2.4c-1.1,0-2.1-0.1-3.2-0.3c-1.1-0.2-2.1-0.6-3-1.1
				c-0.9-0.5-1.6-1.2-2.2-2c-0.6-0.8-1-1.9-1.1-3.1h4.7c0.1,0.7,0.4,1.2,0.7,1.6c0.3,0.4,0.7,0.7,1.2,1c0.5,0.2,0.9,0.4,1.5,0.5
				c0.5,0.1,1.1,0.1,1.7,0.1c1.9,0,3.3-0.5,4.1-1.4c0.9-0.9,1.3-2.3,1.3-4v-3.2h-0.1c-0.7,1.2-1.6,2.1-2.7,2.7c-1.1,0.7-2.4,1-3.7,1
				c-1.7,0-3.1-0.3-4.3-0.9s-2.2-1.4-3-2.4c-0.8-1-1.3-2.2-1.7-3.5c-0.4-1.3-0.5-2.8-0.5-4.3c0-1.4,0.2-2.8,0.7-4.1
				c0.4-1.3,1.1-2.4,1.9-3.4c0.8-1,1.8-1.7,3-2.3c1.2-0.6,2.5-0.9,4-0.9c1.3,0,2.6,0.3,3.7,0.8c1.1,0.6,2,1.4,2.6,2.6h0.1v-2.9h4.7
				V236.4z M106.2,233.8c1,0,1.9-0.2,2.6-0.6c0.7-0.4,1.3-1,1.8-1.7c0.5-0.7,0.8-1.5,1-2.4c0.2-0.9,0.3-1.8,0.3-2.7
				s-0.1-1.8-0.3-2.6c-0.2-0.8-0.6-1.6-1-2.3c-0.5-0.7-1-1.2-1.8-1.6c-0.7-0.4-1.6-0.6-2.6-0.6c-1,0-1.9,0.2-2.6,0.7
				c-0.7,0.4-1.3,1-1.7,1.7c-0.4,0.7-0.8,1.5-0.9,2.4c-0.2,0.9-0.3,1.8-0.3,2.6s0.1,1.7,0.3,2.6c0.2,0.8,0.6,1.6,1,2.2
				c0.5,0.7,1,1.2,1.7,1.6C104.4,233.6,105.2,233.8,106.2,233.8z"/>
			<path d="M120.5,216.3h4.4v3.1l0.1,0.1c0.7-1.2,1.6-2.1,2.8-2.8c1.1-0.7,2.4-1,3.8-1c2.3,0,4.2,0.6,5.5,1.8c1.3,1.2,2,3,2,5.4
				v14.5h-4.7v-13.3c-0.1-1.7-0.4-2.9-1.1-3.6c-0.7-0.8-1.7-1.1-3.1-1.1c-0.8,0-1.5,0.1-2.1,0.4c-0.6,0.3-1.2,0.7-1.6,1.2
				c-0.4,0.5-0.8,1.1-1,1.8c-0.2,0.7-0.4,1.4-0.4,2.2v12.5h-4.7V216.3z"/>
			<path d="M146.8,228.1c0,0.8,0.1,1.6,0.3,2.4c0.2,0.8,0.6,1.4,1,2c0.5,0.6,1.1,1,1.8,1.4c0.7,0.3,1.6,0.5,2.5,0.5
				c1.4,0,2.5-0.3,3.3-0.9c0.8-0.6,1.5-1.5,1.9-2.6h4.4c-0.2,1.1-0.7,2.2-1.3,3.1c-0.6,0.9-1.3,1.7-2.2,2.3
				c-0.8,0.6-1.8,1.1-2.8,1.4s-2.2,0.5-3.3,0.5c-1.7,0-3.1-0.3-4.4-0.8c-1.3-0.5-2.4-1.3-3.3-2.3c-0.9-1-1.6-2.2-2-3.5
				c-0.5-1.4-0.7-2.9-0.7-4.5c0-1.5,0.2-2.9,0.7-4.3c0.5-1.4,1.2-2.5,2-3.6c0.9-1,2-1.8,3.2-2.4c1.3-0.6,2.7-0.9,4.3-0.9
				c1.7,0,3.2,0.3,4.5,1c1.3,0.7,2.4,1.6,3.3,2.8c0.9,1.1,1.5,2.5,1.9,4c0.4,1.5,0.5,3,0.3,4.6H146.8z M157.7,225.1
				c-0.1-0.7-0.2-1.4-0.5-2.1c-0.3-0.7-0.6-1.3-1.1-1.8c-0.5-0.5-1-0.9-1.6-1.2c-0.6-0.3-1.4-0.5-2.2-0.5c-0.8,0-1.6,0.1-2.2,0.4
				c-0.7,0.3-1.2,0.7-1.7,1.2c-0.5,0.5-0.9,1.1-1.1,1.8c-0.3,0.7-0.4,1.4-0.5,2.2H157.7z"/>
			<path d="M164.7,224.2h11.9v4.4h-11.9V224.2z"/>
			<path d="M180.9,208.3h12.9c2.1,0,3.8,0.3,5.1,0.9c1.3,0.6,2.3,1.4,3,2.3c0.7,0.9,1.2,1.9,1.5,3c0.3,1.1,0.4,2,0.4,3
				c0,0.9-0.1,1.9-0.4,2.9c-0.3,1.1-0.7,2-1.5,2.9c-0.7,0.9-1.7,1.6-3,2.2c-1.3,0.6-3,0.9-5.1,0.9H186v11.2h-5.1V208.3z M186,222.1
				h7.5c0.6,0,1.2-0.1,1.8-0.2c0.6-0.2,1.2-0.4,1.7-0.8c0.5-0.4,0.9-0.9,1.2-1.5c0.3-0.6,0.5-1.4,0.5-2.3c0-1-0.1-1.7-0.4-2.4
				c-0.3-0.6-0.6-1.1-1.1-1.5c-0.5-0.4-1-0.6-1.6-0.8c-0.6-0.1-1.2-0.2-1.9-0.2H186V222.1z"/>
			<path d="M224.5,232.8c0,0.6,0.1,1,0.2,1.2s0.4,0.4,0.9,0.4c0.1,0,0.3,0,0.5,0c0.2,0,0.4,0,0.7-0.1v3.2c-0.2,0.1-0.4,0.1-0.6,0.2
				c-0.3,0.1-0.5,0.1-0.8,0.2c-0.3,0.1-0.5,0.1-0.8,0.1c-0.3,0-0.5,0-0.7,0c-1,0-1.7-0.2-2.4-0.6c-0.6-0.4-1-1.1-1.2-2
				c-0.9,0.9-2.1,1.6-3.4,2c-1.4,0.4-2.7,0.6-3.9,0.6c-1,0-1.9-0.1-2.7-0.4c-0.9-0.3-1.6-0.6-2.3-1.1c-0.7-0.5-1.2-1.1-1.6-1.9
				c-0.4-0.8-0.6-1.7-0.6-2.7c0-1.3,0.2-2.4,0.7-3.2c0.5-0.8,1.1-1.5,1.9-1.9c0.8-0.5,1.7-0.8,2.6-1c1-0.2,1.9-0.4,2.9-0.5
				c0.8-0.2,1.7-0.3,2.4-0.3c0.8-0.1,1.4-0.2,2-0.3c0.6-0.2,1.1-0.4,1.4-0.8c0.3-0.3,0.5-0.9,0.5-1.5c0-0.6-0.1-1.1-0.4-1.5
				c-0.3-0.4-0.6-0.7-1.1-0.9c-0.4-0.2-0.9-0.3-1.4-0.4c-0.5-0.1-1-0.1-1.5-0.1c-1.3,0-2.4,0.3-3.2,0.8c-0.8,0.5-1.3,1.4-1.4,2.5
				h-4.7c0.1-1.4,0.4-2.5,1-3.4c0.6-0.9,1.3-1.6,2.2-2.2c0.9-0.5,1.9-0.9,3-1.1c1.1-0.2,2.3-0.3,3.4-0.3c1,0,2.1,0.1,3.1,0.3
				c1,0.2,1.9,0.6,2.7,1.1c0.8,0.5,1.5,1.1,1.9,1.9c0.5,0.8,0.7,1.7,0.7,2.8V232.8z M219.8,226.9c-0.7,0.5-1.6,0.7-2.6,0.8
				c-1,0.1-2.1,0.2-3.1,0.4c-0.5,0.1-1,0.2-1.4,0.3c-0.5,0.2-0.9,0.4-1.2,0.6c-0.4,0.3-0.6,0.6-0.8,1s-0.3,0.9-0.3,1.5
				c0,0.5,0.1,1,0.5,1.3c0.3,0.4,0.7,0.6,1.1,0.8c0.4,0.2,0.9,0.3,1.4,0.4c0.5,0.1,1,0.1,1.4,0.1c0.5,0,1.1-0.1,1.7-0.2
				c0.6-0.1,1.2-0.4,1.7-0.7c0.5-0.3,1-0.7,1.3-1.3c0.4-0.5,0.5-1.1,0.5-1.9V226.9z"/>
			<path d="M226.4,216.3h5.1l5.5,15.8h0.1l5.4-15.8h4.9l-8.2,22.3c-0.4,1-0.8,1.9-1.1,2.7c-0.4,0.9-0.8,1.6-1.4,2.3
				c-0.5,0.7-1.2,1.2-2,1.6c-0.8,0.4-1.8,0.6-3,0.6c-1.1,0-2.2-0.1-3.2-0.2v-3.9c0.4,0.1,0.8,0.1,1.1,0.2c0.4,0.1,0.7,0.1,1.1,0.1
				c0.5,0,1-0.1,1.4-0.2c0.4-0.1,0.6-0.3,0.9-0.6c0.2-0.3,0.4-0.6,0.6-0.9c0.2-0.4,0.3-0.8,0.5-1.2l0.5-1.6L226.4,216.3z"/>
			<path d="M252.7,230.7c0.1,1.4,0.7,2.3,1.6,2.9c0.9,0.5,2,0.8,3.2,0.8c0.4,0,0.9,0,1.5-0.1c0.6-0.1,1.1-0.2,1.6-0.4
				c0.5-0.2,0.9-0.5,1.2-0.8c0.3-0.4,0.5-0.9,0.4-1.5c0-0.6-0.2-1.1-0.7-1.5s-0.9-0.7-1.6-0.9c-0.6-0.2-1.4-0.4-2.2-0.6
				c-0.8-0.2-1.7-0.3-2.5-0.5c-0.9-0.2-1.7-0.4-2.5-0.7c-0.8-0.3-1.5-0.6-2.2-1.1c-0.6-0.5-1.2-1.1-1.5-1.8
				c-0.4-0.7-0.6-1.6-0.6-2.7c0-1.1,0.3-2.1,0.8-2.9c0.6-0.8,1.3-1.4,2.1-1.9c0.9-0.5,1.8-0.8,2.9-1s2.1-0.3,3-0.3
				c1.1,0,2.1,0.1,3.1,0.3c1,0.2,1.9,0.6,2.7,1.1c0.8,0.5,1.5,1.2,2,2c0.5,0.8,0.9,1.8,1,3h-4.9c-0.2-1.1-0.7-1.9-1.5-2.3
				c-0.8-0.4-1.7-0.6-2.8-0.6c-0.3,0-0.7,0-1.2,0.1c-0.5,0.1-0.9,0.2-1.3,0.3c-0.4,0.2-0.7,0.4-1,0.7c-0.3,0.3-0.4,0.7-0.4,1.1
				c0,0.6,0.2,1,0.6,1.4c0.4,0.4,0.9,0.6,1.6,0.9c0.6,0.2,1.4,0.4,2.2,0.6c0.8,0.2,1.7,0.3,2.5,0.5c0.8,0.2,1.7,0.4,2.5,0.7
				c0.8,0.3,1.6,0.6,2.2,1.1s1.2,1.1,1.6,1.8c0.4,0.7,0.6,1.6,0.6,2.6c0,1.3-0.3,2.3-0.9,3.2c-0.6,0.9-1.3,1.6-2.2,2.1
				c-0.9,0.5-1.9,0.9-3.1,1.2c-1.1,0.2-2.2,0.4-3.3,0.4c-1.3,0-2.6-0.2-3.7-0.5c-1.1-0.3-2.1-0.8-3-1.4c-0.8-0.6-1.5-1.4-2-2.3
				c-0.5-0.9-0.7-2-0.8-3.3H252.7z"/>
			<path d="M300.1,237.5h-4.4v-2.9h-0.1c-0.6,1.2-1.5,2.1-2.7,2.6s-2.5,0.8-3.8,0.8c-1.7,0-3.1-0.3-4.4-0.9
				c-1.2-0.6-2.3-1.4-3.1-2.4c-0.8-1-1.4-2.2-1.8-3.6c-0.4-1.4-0.6-2.9-0.6-4.4c0-1.9,0.3-3.6,0.8-5c0.5-1.4,1.2-2.5,2.1-3.4
				c0.9-0.9,1.8-1.6,3-2c1.1-0.4,2.2-0.6,3.4-0.6c0.7,0,1.3,0.1,2,0.2c0.7,0.1,1.3,0.3,2,0.6c0.6,0.3,1.2,0.6,1.7,1
				c0.5,0.4,1,0.9,1.3,1.5h0.1v-10.8h4.7V237.5z M283.8,227.2c0,0.9,0.1,1.8,0.3,2.7c0.2,0.9,0.6,1.7,1.1,2.3
				c0.5,0.7,1.1,1.2,1.8,1.6c0.7,0.4,1.6,0.6,2.6,0.6c1,0,1.9-0.2,2.7-0.7c0.8-0.4,1.4-1,1.8-1.7c0.5-0.7,0.8-1.5,1.1-2.4
				c0.2-0.9,0.3-1.8,0.3-2.7c0-2.3-0.5-4.2-1.6-5.5s-2.5-2-4.3-2c-1.1,0-2,0.2-2.8,0.7c-0.8,0.5-1.4,1-1.8,1.8
				c-0.5,0.7-0.8,1.5-1,2.5C283.9,225.3,283.8,226.2,283.8,227.2z"/>
			<path d="M308.1,228.1c0,0.8,0.1,1.6,0.3,2.4c0.2,0.8,0.6,1.4,1,2c0.5,0.6,1.1,1,1.8,1.4c0.7,0.3,1.6,0.5,2.5,0.5
				c1.4,0,2.5-0.3,3.3-0.9c0.8-0.6,1.5-1.5,1.9-2.6h4.4c-0.2,1.1-0.7,2.2-1.3,3.1c-0.6,0.9-1.3,1.7-2.2,2.3
				c-0.8,0.6-1.8,1.1-2.8,1.4c-1.1,0.3-2.2,0.5-3.3,0.5c-1.7,0-3.1-0.3-4.4-0.8c-1.3-0.5-2.4-1.3-3.3-2.3c-0.9-1-1.6-2.2-2-3.5
				c-0.5-1.4-0.7-2.9-0.7-4.5c0-1.5,0.2-2.9,0.7-4.3c0.5-1.4,1.2-2.5,2-3.6c0.9-1,2-1.8,3.2-2.4c1.3-0.6,2.7-0.9,4.3-0.9
				c1.7,0,3.2,0.3,4.5,1c1.3,0.7,2.4,1.6,3.3,2.8c0.9,1.1,1.5,2.5,1.9,4c0.4,1.5,0.5,3,0.3,4.6H308.1z M319,225.1
				c-0.1-0.7-0.2-1.4-0.5-2.1c-0.3-0.7-0.6-1.3-1.1-1.8c-0.5-0.5-1-0.9-1.6-1.2c-0.6-0.3-1.4-0.5-2.2-0.5c-0.8,0-1.6,0.1-2.2,0.4
				c-0.7,0.3-1.2,0.7-1.7,1.2c-0.5,0.5-0.9,1.1-1.1,1.8c-0.3,0.7-0.4,1.4-0.5,2.2H319z"/>
			<path d="M337.1,208.3h4.7v29.3h-4.7V208.3z"/>
			<path d="M363.7,232.8c0,0.6,0.1,1,0.2,1.2s0.4,0.4,0.9,0.4c0.1,0,0.3,0,0.5,0s0.4,0,0.7-0.1v3.2c-0.2,0.1-0.4,0.1-0.6,0.2
				c-0.3,0.1-0.5,0.1-0.8,0.2c-0.3,0.1-0.5,0.1-0.8,0.1c-0.3,0-0.5,0-0.7,0c-1,0-1.7-0.2-2.4-0.6c-0.6-0.4-1-1.1-1.2-2
				c-0.9,0.9-2.1,1.6-3.4,2c-1.4,0.4-2.7,0.6-3.9,0.6c-1,0-1.9-0.1-2.7-0.4c-0.9-0.3-1.6-0.6-2.3-1.1c-0.7-0.5-1.2-1.1-1.6-1.9
				c-0.4-0.8-0.6-1.7-0.6-2.7c0-1.3,0.2-2.4,0.7-3.2c0.5-0.8,1.1-1.5,1.9-1.9c0.8-0.5,1.7-0.8,2.6-1c1-0.2,1.9-0.4,2.9-0.5
				c0.8-0.2,1.7-0.3,2.4-0.3c0.8-0.1,1.4-0.2,2-0.3c0.6-0.2,1.1-0.4,1.4-0.8c0.3-0.3,0.5-0.9,0.5-1.5c0-0.6-0.1-1.1-0.4-1.5
				c-0.3-0.4-0.6-0.7-1.1-0.9c-0.4-0.2-0.9-0.3-1.4-0.4c-0.5-0.1-1-0.1-1.5-0.1c-1.3,0-2.4,0.3-3.2,0.8c-0.8,0.5-1.3,1.4-1.4,2.5
				h-4.7c0.1-1.4,0.4-2.5,1-3.4c0.6-0.9,1.3-1.6,2.2-2.2c0.9-0.5,1.9-0.9,3-1.1c1.1-0.2,2.3-0.3,3.4-0.3c1,0,2.1,0.1,3.1,0.3
				c1,0.2,1.9,0.6,2.7,1.1c0.8,0.5,1.5,1.1,1.9,1.9c0.5,0.8,0.7,1.7,0.7,2.8V232.8z M359.1,226.9c-0.7,0.5-1.6,0.7-2.6,0.8
				c-1,0.1-2.1,0.2-3.1,0.4c-0.5,0.1-1,0.2-1.4,0.3c-0.5,0.2-0.9,0.4-1.2,0.6c-0.4,0.3-0.6,0.6-0.8,1c-0.2,0.4-0.3,0.9-0.3,1.5
				c0,0.5,0.1,1,0.5,1.3c0.3,0.4,0.7,0.6,1.1,0.8c0.4,0.2,0.9,0.3,1.4,0.4c0.5,0.1,1,0.1,1.4,0.1c0.5,0,1.1-0.1,1.7-0.2
				c0.6-0.1,1.2-0.4,1.7-0.7c0.5-0.3,1-0.7,1.3-1.3c0.4-0.5,0.5-1.1,0.5-1.9V226.9z"/>
			<path d="M379.2,208.3h5.1v24.8h14.9v4.4h-20V208.3z"/>
			<path d="M410.9,238.1c-1.7,0-3.2-0.3-4.5-0.8c-1.3-0.6-2.4-1.3-3.4-2.3c-0.9-1-1.6-2.2-2.1-3.5c-0.5-1.4-0.7-2.9-0.7-4.5
				c0-1.6,0.2-3.1,0.7-4.5c0.5-1.4,1.2-2.5,2.1-3.5c0.9-1,2-1.8,3.4-2.3c1.3-0.6,2.8-0.8,4.5-0.8c1.7,0,3.2,0.3,4.5,0.8
				c1.3,0.6,2.4,1.3,3.4,2.3c0.9,1,1.6,2.2,2.1,3.5s0.7,2.9,0.7,4.5c0,1.6-0.2,3.1-0.7,4.5c-0.5,1.4-1.2,2.5-2.1,3.5
				c-0.9,1-2,1.8-3.4,2.3C414.1,237.8,412.6,238.1,410.9,238.1z M410.9,234.4c1,0,1.9-0.2,2.7-0.7c0.8-0.4,1.4-1,1.9-1.7
				c0.5-0.7,0.9-1.5,1.1-2.4c0.2-0.9,0.3-1.8,0.3-2.7c0-0.9-0.1-1.8-0.3-2.7c-0.2-0.9-0.6-1.7-1.1-2.4c-0.5-0.7-1.1-1.3-1.9-1.7
				c-0.8-0.4-1.7-0.7-2.7-0.7c-1,0-1.9,0.2-2.7,0.7c-0.8,0.4-1.4,1-1.9,1.7c-0.5,0.7-0.9,1.5-1.1,2.4c-0.2,0.9-0.3,1.8-0.3,2.7
				c0,0.9,0.1,1.8,0.3,2.7c0.2,0.9,0.6,1.7,1.1,2.4c0.5,0.7,1.1,1.3,1.9,1.7C409,234.2,409.9,234.4,410.9,234.4z"/>
			<path d="M424.8,208.3h4.7v4.4h-4.7V208.3z M424.8,216.3h4.7v21.2h-4.7V216.3z"/>
			<path d="M433.8,216.3h4.4v4.1h0.1c0.1-0.6,0.4-1.1,0.8-1.7c0.4-0.5,0.9-1,1.4-1.5c0.6-0.5,1.2-0.8,1.9-1.1
				c0.7-0.3,1.4-0.4,2.1-0.4c0.5,0,0.9,0,1.1,0c0.2,0,0.4,0.1,0.6,0.1v4.5c-0.3-0.1-0.7-0.1-1-0.1c-0.3,0-0.7-0.1-1-0.1
				c-0.8,0-1.5,0.2-2.2,0.5s-1.3,0.8-1.8,1.4c-0.5,0.6-0.9,1.4-1.2,2.3c-0.3,0.9-0.5,1.9-0.5,3.1v10.1h-4.7V216.3z"/>
			<path d="M450.3,228.1c0,0.8,0.1,1.6,0.3,2.4c0.2,0.8,0.6,1.4,1,2c0.5,0.6,1.1,1,1.8,1.4c0.7,0.3,1.6,0.5,2.5,0.5
				c1.4,0,2.5-0.3,3.3-0.9c0.8-0.6,1.5-1.5,1.9-2.6h4.4c-0.2,1.1-0.7,2.2-1.3,3.1c-0.6,0.9-1.3,1.7-2.2,2.3
				c-0.8,0.6-1.8,1.1-2.8,1.4c-1.1,0.3-2.2,0.5-3.3,0.5c-1.7,0-3.1-0.3-4.4-0.8c-1.3-0.5-2.4-1.3-3.3-2.3c-0.9-1-1.6-2.2-2-3.5
				c-0.5-1.4-0.7-2.9-0.7-4.5c0-1.5,0.2-2.9,0.7-4.3c0.5-1.4,1.2-2.5,2-3.6c0.9-1,2-1.8,3.2-2.4c1.3-0.6,2.7-0.9,4.3-0.9
				c1.7,0,3.2,0.3,4.5,1c1.3,0.7,2.4,1.6,3.3,2.8c0.9,1.1,1.5,2.5,1.9,4c0.4,1.5,0.5,3,0.3,4.6H450.3z M461.2,225.1
				c-0.1-0.7-0.2-1.4-0.5-2.1c-0.3-0.7-0.6-1.3-1.1-1.8c-0.5-0.5-1-0.9-1.6-1.2c-0.6-0.3-1.4-0.5-2.2-0.5c-0.8,0-1.6,0.1-2.2,0.4
				c-0.7,0.3-1.2,0.7-1.7,1.2c-0.5,0.5-0.9,1.1-1.1,1.8c-0.3,0.7-0.4,1.4-0.5,2.2H461.2z"/>
			<path d="M0,257.4h21.1v4.4H5.1v7.7h14.8v4.2H5.1v8.6h16.2v4.4H0V257.4z M11.9,248.8h5.5l-5.8,5.9H8.2L11.9,248.8z"/>
			<path d="M38.6,272.6c-0.2-1.3-0.7-2.3-1.6-3c-0.9-0.7-1.9-1-3.3-1c-0.6,0-1.2,0.1-1.9,0.3c-0.7,0.2-1.3,0.6-1.9,1.1
				c-0.6,0.6-1.1,1.3-1.4,2.3c-0.4,1-0.6,2.3-0.6,3.9c0,0.9,0.1,1.7,0.3,2.6c0.2,0.9,0.5,1.7,1,2.3c0.5,0.7,1,1.2,1.7,1.7
				c0.7,0.4,1.6,0.6,2.6,0.6c1.4,0,2.5-0.4,3.4-1.3s1.4-2,1.7-3.6h4.7c-0.4,2.8-1.5,4.9-3.1,6.3c-1.7,1.5-3.8,2.2-6.6,2.2
				c-1.7,0-3.1-0.3-4.4-0.8c-1.3-0.6-2.3-1.3-3.2-2.3c-0.9-1-1.5-2.1-2-3.5c-0.5-1.3-0.7-2.8-0.7-4.3c0-1.6,0.2-3.1,0.7-4.5
				c0.4-1.4,1.1-2.6,2-3.6c0.9-1,2-1.8,3.3-2.4c1.3-0.6,2.8-0.9,4.6-0.9c1.2,0,2.4,0.2,3.5,0.5c1.1,0.3,2.1,0.8,3,1.4
				c0.9,0.6,1.6,1.4,2.1,2.4c0.5,1,0.9,2.1,1,3.4H38.6z"/>
			<path d="M56,287.3c-1.7,0-3.2-0.3-4.5-0.8c-1.3-0.6-2.4-1.3-3.4-2.3c-0.9-1-1.6-2.2-2.1-3.5c-0.5-1.4-0.7-2.9-0.7-4.5
				c0-1.6,0.2-3.1,0.7-4.5c0.5-1.4,1.2-2.5,2.1-3.5c0.9-1,2-1.8,3.4-2.3c1.3-0.6,2.8-0.8,4.5-0.8c1.7,0,3.2,0.3,4.5,0.8
				c1.3,0.6,2.4,1.3,3.4,2.3c0.9,1,1.6,2.2,2.1,3.5c0.5,1.4,0.7,2.9,0.7,4.5c0,1.6-0.2,3.1-0.7,4.5c-0.5,1.4-1.2,2.5-2.1,3.5
				c-0.9,1-2,1.8-3.4,2.3S57.7,287.3,56,287.3z M56,283.6c1,0,1.9-0.2,2.7-0.7c0.8-0.4,1.4-1,1.9-1.7c0.5-0.7,0.9-1.5,1.1-2.4
				c0.2-0.9,0.3-1.8,0.3-2.7c0-0.9-0.1-1.8-0.3-2.7c-0.2-0.9-0.6-1.7-1.1-2.4c-0.5-0.7-1.1-1.3-1.9-1.7c-0.8-0.4-1.7-0.7-2.7-0.7
				s-1.9,0.2-2.7,0.7c-0.8,0.4-1.4,1-1.9,1.7s-0.9,1.5-1.1,2.4c-0.2,0.9-0.3,1.8-0.3,2.7c0,0.9,0.1,1.8,0.3,2.7
				c0.2,0.9,0.6,1.7,1.1,2.4c0.5,0.7,1.1,1.3,1.9,1.7C54.1,283.4,55,283.6,56,283.6z"/>
			<path d="M69.9,257.4h4.7v29.3h-4.7V257.4z"/>
			<path d="M82.5,277.3c0,0.8,0.1,1.6,0.3,2.4c0.2,0.8,0.6,1.4,1,2c0.5,0.6,1.1,1,1.8,1.4c0.7,0.3,1.6,0.5,2.5,0.5
				c1.4,0,2.5-0.3,3.3-0.9s1.5-1.5,1.9-2.6h4.4c-0.2,1.1-0.7,2.2-1.3,3.1c-0.6,0.9-1.3,1.7-2.2,2.3c-0.8,0.6-1.8,1.1-2.8,1.4
				s-2.2,0.5-3.3,0.5c-1.7,0-3.1-0.3-4.4-0.8c-1.3-0.5-2.4-1.3-3.3-2.3c-0.9-1-1.6-2.2-2-3.5c-0.5-1.4-0.7-2.9-0.7-4.5
				c0-1.5,0.2-2.9,0.7-4.3c0.5-1.4,1.2-2.5,2-3.6c0.9-1,2-1.8,3.2-2.4c1.3-0.6,2.7-0.9,4.3-0.9c1.7,0,3.2,0.3,4.5,1
				c1.3,0.7,2.4,1.6,3.3,2.8c0.9,1.1,1.5,2.5,1.9,4c0.4,1.5,0.5,3,0.3,4.6H82.5z M93.4,274.2c-0.1-0.7-0.2-1.4-0.5-2.1
				c-0.3-0.7-0.6-1.3-1.1-1.8c-0.5-0.5-1-0.9-1.6-1.2c-0.6-0.3-1.4-0.5-2.2-0.5c-0.8,0-1.6,0.1-2.2,0.4c-0.7,0.3-1.2,0.7-1.7,1.2
				c-0.5,0.5-0.9,1.1-1.1,1.8c-0.3,0.7-0.4,1.4-0.5,2.2H93.4z"/>
			<path d="M111.9,257.4h7.2l8.1,22.9h0.1l7.9-22.9h7.1v29.3h-4.9v-22.6h-0.1l-8.1,22.6H125l-8.1-22.6h-0.1v22.6h-4.9V257.4z"/>
			<path d="M147.1,257.4h4.7v4.4h-4.7V257.4z M147.1,265.5h4.7v21.2h-4.7V265.5z"/>
			<path d="M156,265.5h4.4v3.1l0.1,0.1c0.7-1.2,1.6-2.1,2.8-2.8c1.1-0.7,2.4-1,3.8-1c2.3,0,4.2,0.6,5.5,1.8c1.3,1.2,2,3,2,5.4v14.5
				H170v-13.3c-0.1-1.7-0.4-2.9-1.1-3.6c-0.7-0.8-1.7-1.1-3.1-1.1c-0.8,0-1.5,0.1-2.1,0.4c-0.6,0.3-1.2,0.7-1.6,1.2
				c-0.4,0.5-0.8,1.1-1,1.8c-0.2,0.7-0.4,1.4-0.4,2.2v12.5H156V265.5z"/>
			<path d="M182.4,277.3c0,0.8,0.1,1.6,0.3,2.4c0.2,0.8,0.6,1.4,1,2c0.5,0.6,1.1,1,1.8,1.4c0.7,0.3,1.6,0.5,2.5,0.5
				c1.4,0,2.5-0.3,3.3-0.9c0.8-0.6,1.5-1.5,1.9-2.6h4.4c-0.2,1.1-0.7,2.2-1.3,3.1c-0.6,0.9-1.3,1.7-2.2,2.3
				c-0.8,0.6-1.8,1.1-2.8,1.4c-1.1,0.3-2.2,0.5-3.3,0.5c-1.7,0-3.1-0.3-4.4-0.8c-1.3-0.5-2.4-1.3-3.3-2.3c-0.9-1-1.6-2.2-2-3.5
				c-0.5-1.4-0.7-2.9-0.7-4.5c0-1.5,0.2-2.9,0.7-4.3c0.5-1.4,1.2-2.5,2-3.6c0.9-1,2-1.8,3.2-2.4c1.3-0.6,2.7-0.9,4.3-0.9
				c1.7,0,3.2,0.3,4.5,1c1.3,0.7,2.4,1.6,3.3,2.8c0.9,1.1,1.5,2.5,1.9,4c0.4,1.5,0.5,3,0.3,4.6H182.4z M193.3,274.2
				c-0.1-0.7-0.2-1.4-0.5-2.1c-0.3-0.7-0.6-1.3-1.1-1.8c-0.5-0.5-1-0.9-1.6-1.2c-0.6-0.3-1.4-0.5-2.2-0.5c-0.8,0-1.6,0.1-2.2,0.4
				c-0.7,0.3-1.2,0.7-1.7,1.2c-0.5,0.5-0.9,1.1-1.1,1.8c-0.3,0.7-0.4,1.4-0.5,2.2H193.3z"/>
			<path d="M204.2,279.9c0.1,1.4,0.7,2.3,1.6,2.9c0.9,0.5,2,0.8,3.2,0.8c0.4,0,0.9,0,1.5-0.1c0.6-0.1,1.1-0.2,1.6-0.4
				c0.5-0.2,0.9-0.5,1.2-0.8c0.3-0.4,0.5-0.9,0.4-1.5c0-0.6-0.2-1.1-0.7-1.5c-0.4-0.4-0.9-0.7-1.6-0.9c-0.6-0.2-1.4-0.4-2.2-0.6
				c-0.8-0.2-1.7-0.3-2.5-0.5c-0.9-0.2-1.7-0.4-2.5-0.7c-0.8-0.3-1.5-0.6-2.2-1.1c-0.6-0.5-1.2-1.1-1.5-1.8
				c-0.4-0.7-0.6-1.6-0.6-2.7c0-1.1,0.3-2.1,0.8-2.9c0.6-0.8,1.3-1.4,2.1-1.9c0.9-0.5,1.8-0.8,2.9-1s2.1-0.3,3-0.3
				c1.1,0,2.1,0.1,3.1,0.3c1,0.2,1.9,0.6,2.7,1.1c0.8,0.5,1.5,1.2,2,2c0.5,0.8,0.9,1.8,1,3h-4.9c-0.2-1.1-0.7-1.9-1.5-2.3
				c-0.8-0.4-1.7-0.6-2.8-0.6c-0.3,0-0.7,0-1.2,0.1c-0.5,0.1-0.9,0.2-1.3,0.3c-0.4,0.2-0.7,0.4-1,0.7c-0.3,0.3-0.4,0.7-0.4,1.1
				c0,0.6,0.2,1,0.6,1.4c0.4,0.4,0.9,0.6,1.6,0.9c0.6,0.2,1.4,0.4,2.2,0.6c0.8,0.2,1.7,0.3,2.5,0.5c0.8,0.2,1.7,0.4,2.5,0.7
				c0.8,0.3,1.6,0.6,2.2,1.1c0.6,0.5,1.2,1.1,1.6,1.8c0.4,0.7,0.6,1.6,0.6,2.6c0,1.3-0.3,2.3-0.9,3.2c-0.6,0.9-1.3,1.6-2.2,2.1
				c-0.9,0.5-1.9,0.9-3.1,1.2c-1.1,0.2-2.2,0.4-3.3,0.4c-1.3,0-2.6-0.2-3.7-0.5c-1.1-0.3-2.1-0.8-3-1.4c-0.8-0.6-1.5-1.4-2-2.3
				c-0.5-0.9-0.7-2-0.8-3.3H204.2z"/>
			<path d="M220.7,273.3h11.9v4.4h-11.9V273.3z"/>
			<path d="M234.1,257.4h23.7v4.4h-9.3v24.8h-5.1v-24.8h-9.3V257.4z"/>
			<path d="M258.8,277.3c0,0.8,0.1,1.6,0.3,2.4c0.2,0.8,0.6,1.4,1,2c0.5,0.6,1.1,1,1.8,1.4c0.7,0.3,1.6,0.5,2.5,0.5
				c1.4,0,2.5-0.3,3.3-0.9c0.8-0.6,1.5-1.5,1.9-2.6h4.4c-0.2,1.1-0.7,2.2-1.3,3.1c-0.6,0.9-1.3,1.7-2.2,2.3
				c-0.8,0.6-1.8,1.1-2.8,1.4c-1.1,0.3-2.2,0.5-3.3,0.5c-1.7,0-3.1-0.3-4.4-0.8c-1.3-0.5-2.4-1.3-3.3-2.3c-0.9-1-1.6-2.2-2-3.5
				c-0.5-1.4-0.7-2.9-0.7-4.5c0-1.5,0.2-2.9,0.7-4.3c0.5-1.4,1.2-2.5,2-3.6c0.9-1,2-1.8,3.2-2.4c1.3-0.6,2.7-0.9,4.3-0.9
				c1.7,0,3.2,0.3,4.5,1c1.3,0.7,2.4,1.6,3.3,2.8c0.9,1.1,1.5,2.5,1.9,4c0.4,1.5,0.5,3,0.3,4.6H258.8z M269.7,274.2
				c-0.1-0.7-0.2-1.4-0.5-2.1c-0.3-0.7-0.6-1.3-1.1-1.8c-0.5-0.5-1-0.9-1.6-1.2c-0.6-0.3-1.4-0.5-2.2-0.5c-0.8,0-1.6,0.1-2.2,0.4
				c-0.7,0.3-1.2,0.7-1.7,1.2c-0.5,0.5-0.9,1.1-1.1,1.8c-0.3,0.7-0.4,1.4-0.5,2.2H269.7z M266.2,256.7h5.5l-5.8,5.9h-3.4
				L266.2,256.7z"/>
			<path d="M277.3,257.4h4.7v29.3h-4.7V257.4z"/>
			<path d="M289.9,277.3c0,0.8,0.1,1.6,0.3,2.4c0.2,0.8,0.6,1.4,1,2c0.5,0.6,1.1,1,1.8,1.4c0.7,0.3,1.6,0.5,2.5,0.5
				c1.4,0,2.5-0.3,3.3-0.9c0.8-0.6,1.5-1.5,1.9-2.6h4.4c-0.2,1.1-0.7,2.2-1.3,3.1c-0.6,0.9-1.3,1.7-2.2,2.3
				c-0.8,0.6-1.8,1.1-2.8,1.4c-1.1,0.3-2.2,0.5-3.3,0.5c-1.7,0-3.1-0.3-4.4-0.8c-1.3-0.5-2.4-1.3-3.3-2.3c-0.9-1-1.6-2.2-2-3.5
				c-0.5-1.4-0.7-2.9-0.7-4.5c0-1.5,0.2-2.9,0.7-4.3c0.5-1.4,1.2-2.5,2-3.6c0.9-1,2-1.8,3.2-2.4c1.3-0.6,2.7-0.9,4.3-0.9
				c1.7,0,3.2,0.3,4.5,1c1.3,0.7,2.4,1.6,3.3,2.8c0.9,1.1,1.5,2.5,1.9,4c0.4,1.5,0.5,3,0.3,4.6H289.9z M300.8,274.2
				c-0.1-0.7-0.2-1.4-0.5-2.1c-0.3-0.7-0.6-1.3-1.1-1.8c-0.5-0.5-1-0.9-1.6-1.2c-0.6-0.3-1.4-0.5-2.2-0.5c-0.8,0-1.6,0.1-2.2,0.4
				c-0.7,0.3-1.2,0.7-1.7,1.2c-0.5,0.5-0.9,1.1-1.1,1.8c-0.3,0.7-0.4,1.4-0.5,2.2H300.8z M297.2,256.7h5.5l-5.8,5.9h-3.4
				L297.2,256.7z"/>
			<path d="M322.5,272.6c-0.2-1.3-0.7-2.3-1.6-3c-0.9-0.7-1.9-1-3.3-1c-0.6,0-1.2,0.1-1.9,0.3c-0.7,0.2-1.3,0.6-1.9,1.1
				c-0.6,0.6-1.1,1.3-1.4,2.3c-0.4,1-0.6,2.3-0.6,3.9c0,0.9,0.1,1.7,0.3,2.6c0.2,0.9,0.5,1.7,1,2.3c0.5,0.7,1,1.2,1.7,1.7
				c0.7,0.4,1.6,0.6,2.6,0.6c1.4,0,2.5-0.4,3.4-1.3c0.9-0.8,1.4-2,1.7-3.6h4.7c-0.4,2.8-1.5,4.9-3.1,6.3c-1.7,1.5-3.8,2.2-6.6,2.2
				c-1.7,0-3.1-0.3-4.4-0.8c-1.3-0.6-2.3-1.3-3.2-2.3c-0.9-1-1.5-2.1-2-3.5c-0.5-1.3-0.7-2.8-0.7-4.3c0-1.6,0.2-3.1,0.7-4.5
				c0.4-1.4,1.1-2.6,2-3.6c0.9-1,2-1.8,3.3-2.4c1.3-0.6,2.8-0.9,4.6-0.9c1.2,0,2.4,0.2,3.5,0.5c1.1,0.3,2.1,0.8,3,1.4
				c0.9,0.6,1.6,1.4,2.1,2.4c0.5,1,0.9,2.1,1,3.4H322.5z"/>
			<path d="M339.8,287.3c-1.7,0-3.2-0.3-4.5-0.8s-2.4-1.3-3.4-2.3c-0.9-1-1.6-2.2-2.1-3.5c-0.5-1.4-0.7-2.9-0.7-4.5
				c0-1.6,0.2-3.1,0.7-4.5c0.5-1.4,1.2-2.5,2.1-3.5c0.9-1,2-1.8,3.4-2.3c1.3-0.6,2.8-0.8,4.5-0.8s3.2,0.3,4.5,0.8
				c1.3,0.6,2.4,1.3,3.4,2.3c0.9,1,1.6,2.2,2.1,3.5s0.7,2.9,0.7,4.5c0,1.6-0.2,3.1-0.7,4.5c-0.5,1.4-1.2,2.5-2.1,3.5
				c-0.9,1-2,1.8-3.4,2.3S341.5,287.3,339.8,287.3z M339.8,283.6c1,0,1.9-0.2,2.7-0.7c0.8-0.4,1.4-1,1.9-1.7
				c0.5-0.7,0.9-1.5,1.1-2.4c0.2-0.9,0.3-1.8,0.3-2.7c0-0.9-0.1-1.8-0.3-2.7c-0.2-0.9-0.6-1.7-1.1-2.4c-0.5-0.7-1.1-1.3-1.9-1.7
				c-0.8-0.4-1.7-0.7-2.7-0.7c-1,0-1.9,0.2-2.7,0.7c-0.8,0.4-1.4,1-1.9,1.7c-0.5,0.7-0.9,1.5-1.1,2.4c-0.2,0.9-0.3,1.8-0.3,2.7
				c0,0.9,0.1,1.8,0.3,2.7c0.2,0.9,0.6,1.7,1.1,2.4c0.5,0.7,1.1,1.3,1.9,1.7C337.9,283.4,338.8,283.6,339.8,283.6z"/>
			<path d="M353.6,265.5h4.4v3h0.1c0.4-0.5,0.7-1,1.1-1.4c0.4-0.4,0.9-0.8,1.4-1.1c0.5-0.3,1.1-0.5,1.7-0.7c0.7-0.2,1.4-0.3,2.3-0.3
				c1.3,0,2.5,0.3,3.6,0.9c1.1,0.6,1.9,1.5,2.4,2.7c0.8-1.1,1.7-2,2.7-2.6c1-0.6,2.3-0.9,3.9-0.9c2.2,0,4,0.5,5.2,1.6
				c1.2,1.1,1.9,2.9,1.9,5.5v14.6h-4.7v-12.4c0-0.8,0-1.6-0.1-2.3c-0.1-0.7-0.2-1.3-0.5-1.8c-0.3-0.5-0.7-0.9-1.2-1.2
				c-0.5-0.3-1.2-0.4-2.1-0.4c-1.6,0-2.7,0.5-3.4,1.5c-0.7,1-1.1,2.4-1.1,4.2v12.4h-4.7v-13.6c0-1.5-0.3-2.6-0.8-3.3
				s-1.5-1.1-2.9-1.1c-0.6,0-1.2,0.1-1.7,0.4c-0.6,0.2-1.1,0.6-1.5,1.1c-0.4,0.5-0.8,1-1,1.7c-0.3,0.7-0.4,1.5-0.4,2.3v12.6h-4.7
				V265.5z"/>
		</g>
	</g>
	<g>
		<polygon class="st0" points="131.7,0 0.6,131 0.6,0 		"/>
		<polygon class="st0" points="262.7,0 262.7,131 131.7,131 131.7,0 197.2,65.5 		"/>
		<polygon class="st0" points="328.2,131 328.2,65.5 262.7,65.5 328.2,0 459.2,0 		"/>
	</g>
</g>
</svg>
