<?xml version="1.0" encoding="UTF-8" standalone="no"?>
<!-- Created with Inkscape (http://www.inkscape.org/) -->

<svg
   xmlns:dc="http://purl.org/dc/elements/1.1/"
   xmlns:cc="http://creativecommons.org/ns#"
   xmlns:rdf="http://www.w3.org/1999/02/22-rdf-syntax-ns#"
   xmlns:svg="http://www.w3.org/2000/svg"
   xmlns="http://www.w3.org/2000/svg"
   xmlns:sodipodi="http://sodipodi.sourceforge.net/DTD/sodipodi-0.dtd"
   xmlns:inkscape="http://www.inkscape.org/namespaces/inkscape"
   id="svg2"
   version="1.1"
   inkscape:version="0.91 r13725"
   xml:space="preserve"
   width="708.66125"
   height="389.76376"
   viewBox="0 0 708.66125 389.76376"
   sodipodi:docname="LOGOS LS2N bleu fonce-quadriCMJN.svg"><metadata
     id="metadata8"><rdf:RDF><cc:Work
         rdf:about=""><dc:format>image/svg+xml</dc:format><dc:type
           rdf:resource="http://purl.org/dc/dcmitype/StillImage" /><dc:title></dc:title></cc:Work></rdf:RDF></metadata><defs
     id="defs6"><clipPath
       clipPathUnits="userSpaceOnUse"
       id="clipPath16"><path
         d="m 0,0 566.929,0 0,311.811 L 0,311.811 0,0 Z"
         id="path18"
         inkscape:connector-curvature="0" /></clipPath><clipPath
       clipPathUnits="userSpaceOnUse"
       id="clipPath64"><path
         d="m 0,0 566.929,0 0,311.811 L 0,311.811 0,0 Z"
         id="path66"
         inkscape:connector-curvature="0" /></clipPath></defs><sodipodi:namedview
     pagecolor="#ffffff"
     bordercolor="#666666"
     borderopacity="1"
     objecttolerance="10"
     gridtolerance="10"
     guidetolerance="10"
     inkscape:pageopacity="0"
     inkscape:pageshadow="2"
     inkscape:window-width="1600"
     inkscape:window-height="878"
     id="namedview4"
     showgrid="false"
     inkscape:zoom="0.60549497"
     inkscape:cx="354.33063"
     inkscape:cy="193.23034"
     inkscape:window-x="-8"
     inkscape:window-y="292"
     inkscape:window-maximized="1"
     inkscape:current-layer="g10" /><g
     id="g10"
     inkscape:groupmode="layer"
     inkscape:label="LOGOS LS2N bleu fonce-quadriCMJN"
     transform="matrix(1.25,0,0,-1.25,0,389.76375)"><g
       id="g12"><g
         id="g14"
         clip-path="url(#clipPath16)"><g
           id="g20"
           transform="translate(276.7876,128.9678)"><path
             d="m 0,0 1.049,-2.303 0,6.077 -1.856,0 0,-0.932 L 0,2.842 0,0 Z m 1.881,6.376 c 0.282,0.646 0.422,1.7 0.422,3.162 0,1.68 -0.158,2.813 -0.474,3.4 -0.295,0.555 -0.752,0.833 -1.371,0.833 -0.667,0 -1.14,-0.317 -1.417,-0.949 -0.278,-0.611 -0.417,-1.685 -0.417,-3.22 0,-1.536 0.139,-2.61 0.417,-3.221 0.281,-0.629 0.755,-0.943 1.423,-0.943 0.667,0 1.14,0.312 1.417,0.938 M 1.186,9.538 C 1.186,8.336 1.131,7.516 1.023,7.077 0.918,6.617 0.729,6.387 0.456,6.387 c -0.277,0 -0.469,0.231 -0.578,0.695 -0.105,0.468 -0.158,1.304 -0.158,2.509 0,1.205 0.053,2.04 0.158,2.504 0.109,0.464 0.301,0.695 0.578,0.695 0.276,0 0.467,-0.233 0.572,-0.701 0.105,-0.471 0.158,-1.321 0.158,-2.551 m -0.137,86.804 -1.049,0 0,-3.641 1.049,0 0,3.641 z m -8.712,0 -1.049,0 0,-3.641 1.049,0 0,3.641 z m -3.165,-52.749 c 0,1.679 -0.158,2.812 -0.474,3.399 -0.296,0.556 -0.752,0.833 -1.371,0.833 -0.104,0 -0.172,-0.058 -0.267,-0.074 l 0,-1.037 c 0.08,0.065 0.16,0.131 0.264,0.131 0.277,0 0.468,-0.234 0.573,-0.701 0.105,-0.471 0.158,-1.321 0.158,-2.551 0,-1.201 -0.055,-2.022 -0.163,-2.461 -0.105,-0.461 -0.294,-0.691 -0.568,-0.691 -0.104,0 -0.184,0.066 -0.264,0.131 l 0,-1.005 c 0.096,-0.015 0.166,-0.074 0.273,-0.074 0.667,0 1.14,0.313 1.417,0.938 0.281,0.646 0.422,1.7 0.422,3.162 m 0,19.552 c 0,1.679 -0.158,2.812 -0.474,3.399 -0.296,0.555 -0.752,0.833 -1.371,0.833 -0.104,0 -0.172,-0.059 -0.267,-0.074 l 0,-1.037 c 0.08,0.065 0.16,0.13 0.264,0.13 0.277,0 0.468,-0.233 0.573,-0.701 0.105,-0.47 0.158,-1.321 0.158,-2.55 0,-1.203 -0.055,-2.023 -0.163,-2.461 -0.105,-0.461 -0.294,-0.691 -0.568,-0.691 -0.104,0 -0.184,0.065 -0.264,0.131 l 0,-1.005 c 0.096,-0.016 0.166,-0.075 0.273,-0.075 0.667,0 1.14,0.312 1.417,0.938 0.281,0.647 0.422,1.701 0.422,3.163 m -1.845,23.691 c -0.104,0 -0.172,-0.059 -0.267,-0.073 l 0,-1.037 c 0.08,0.065 0.16,0.129 0.264,0.129 0.277,0 0.468,-0.233 0.573,-0.7 0.105,-0.47 0.158,-1.321 0.158,-2.551 0,-1.202 -0.055,-2.022 -0.163,-2.461 -0.105,-0.46 -0.294,-0.691 -0.568,-0.691 -0.104,0 -0.184,0.066 -0.264,0.131 l 0,-1.004 c 0.096,-0.016 0.166,-0.075 0.273,-0.075 0.667,0 1.14,0.312 1.417,0.937 0.281,0.648 0.422,1.702 0.422,3.163 0,1.679 -0.158,2.813 -0.474,3.4 -0.296,0.555 -0.752,0.832 -1.371,0.832 m 0.59,9.301 -0.857,0 0,-8.138 0.857,0 0,8.138 z m 0,-19.296 -0.857,0 0,-8.138 0.857,0 0,8.138 z m 0,-19.46 -0.857,0 0,-8.138 0.857,0 0,8.138 z m 0,-19.552 -0.857,0 0,-8.138 0.857,0 0,8.138 z m -0.002,-11.297 1.239,-2.719 c 0.002,0.118 0.018,0.196 0.018,0.321 0,1.679 -0.158,2.812 -0.474,3.399 -0.296,0.555 -0.752,0.832 -1.371,0.832 -0.086,0 -0.14,-0.05 -0.219,-0.06 l 0.478,-1.05 c 0.133,-0.11 0.245,-0.277 0.311,-0.57 0.008,-0.037 0.011,-0.113 0.018,-0.153 m 3.373,-4.394 0,-3.012 1.049,-2.303 0,6.248 -1.855,0 0,-0.933 0.806,0 z m 2.303,6.697 c 0,1.68 -0.158,2.812 -0.474,3.399 -0.295,0.555 -0.752,0.833 -1.37,0.833 -0.668,0 -1.14,-0.316 -1.418,-0.949 -0.278,-0.611 -0.416,-1.684 -0.416,-3.221 0,-1.535 0.138,-2.608 0.416,-3.219 0.281,-0.629 0.756,-0.944 1.423,-0.944 0.668,0 1.14,0.313 1.418,0.939 0.281,0.646 0.421,1.7 0.421,3.162 m -1.117,0 c 0,-1.202 -0.054,-2.023 -0.163,-2.461 -0.105,-0.461 -0.294,-0.691 -0.567,-0.691 -0.276,0 -0.469,0.232 -0.577,0.696 -0.106,0.467 -0.158,1.304 -0.158,2.509 0,1.205 0.052,2.039 0.158,2.503 0.108,0.463 0.301,0.696 0.577,0.696 0.277,0 0.468,-0.233 0.573,-0.701 0.105,-0.471 0.157,-1.322 0.157,-2.551 m -0.137,13.695 -1.855,0 0,-0.932 0.806,0 0,-7.204 1.049,0 0,8.136 z m 1.254,5.764 c 0,1.68 -0.158,2.813 -0.474,3.4 -0.295,0.555 -0.752,0.832 -1.37,0.832 -0.668,0 -1.14,-0.316 -1.418,-0.948 -0.278,-0.611 -0.416,-1.685 -0.416,-3.221 0,-1.535 0.138,-2.608 0.416,-3.219 0.281,-0.629 0.756,-0.944 1.423,-0.944 0.668,0 1.14,0.313 1.418,0.938 0.281,0.646 0.421,1.701 0.421,3.162 m -1.117,0 c 0,-1.201 -0.054,-2.022 -0.163,-2.461 -0.105,-0.46 -0.294,-0.69 -0.567,-0.69 -0.276,0 -0.469,0.232 -0.577,0.696 -0.106,0.467 -0.158,1.303 -0.158,2.508 0,1.205 0.052,2.04 0.158,2.504 0.108,0.463 0.301,0.695 0.577,0.695 0.277,0 0.468,-0.233 0.573,-0.7 0.105,-0.472 0.157,-1.322 0.157,-2.552 m -0.137,13.788 -1.855,0 0,-0.933 0.806,0 0,-7.205 1.049,0 0,8.138 z m 1.254,5.764 c 0,1.679 -0.158,2.812 -0.474,3.399 -0.295,0.556 -0.752,0.833 -1.37,0.833 -0.668,0 -1.14,-0.316 -1.418,-0.948 -0.278,-0.612 -0.416,-1.686 -0.416,-3.221 0,-1.535 0.138,-2.609 0.416,-3.221 0.281,-0.628 0.756,-0.943 1.423,-0.943 0.668,0 1.14,0.314 1.418,0.939 0.281,0.646 0.421,1.7 0.421,3.162 m -1.117,0 c 0,-1.201 -0.054,-2.023 -0.163,-2.461 -0.105,-0.461 -0.294,-0.691 -0.567,-0.691 -0.276,0 -0.469,0.232 -0.577,0.696 -0.106,0.467 -0.158,1.303 -0.158,2.508 0,1.206 0.052,2.04 0.158,2.504 0.108,0.464 0.301,0.696 0.577,0.696 0.277,0 0.468,-0.234 0.573,-0.702 0.105,-0.47 0.157,-1.32 0.157,-2.55 m -0.137,13.696 -1.855,0 0,-0.933 0.806,0 0,-7.205 1.049,0 0,8.138 z m -2.008,2.606 c 0.281,-0.628 0.756,-0.943 1.423,-0.943 0.668,0 1.14,0.313 1.418,0.939 0.281,0.646 0.421,1.7 0.421,3.162 0,1.679 -0.158,2.812 -0.474,3.399 -0.295,0.555 -0.752,0.833 -1.37,0.833 -0.668,0 -1.14,-0.316 -1.418,-0.949 -0.278,-0.611 -0.416,-1.685 -0.416,-3.22 0,-1.536 0.138,-2.609 0.416,-3.221 m 0.68,3.21 c 0,1.205 0.052,2.04 0.158,2.503 0.108,0.464 0.301,0.697 0.577,0.697 0.277,0 0.468,-0.234 0.573,-0.702 0.105,-0.47 0.157,-1.321 0.157,-2.55 0,-1.202 -0.054,-2.023 -0.163,-2.462 -0.105,-0.46 -0.294,-0.691 -0.567,-0.691 -0.276,0 -0.469,0.233 -0.577,0.697 -0.106,0.466 -0.158,1.303 -0.158,2.508 m 5.62,-68.988 -1.855,0 0,-0.932 0.806,0 0,-7.206 1.049,0 0,8.138 z m 1.255,5.764 c 0,1.679 -0.159,2.812 -0.475,3.399 -0.295,0.555 -0.752,0.832 -1.37,0.832 -0.668,0 -1.14,-0.315 -1.418,-0.948 -0.278,-0.611 -0.416,-1.685 -0.416,-3.221 0,-1.535 0.138,-2.608 0.416,-3.219 0.281,-0.629 0.756,-0.944 1.423,-0.944 0.668,0 1.14,0.313 1.418,0.938 0.281,0.646 0.422,1.701 0.422,3.163 m -1.118,0 c 0,-1.202 -0.054,-2.023 -0.163,-2.462 -0.105,-0.46 -0.294,-0.691 -0.567,-0.691 -0.276,0 -0.469,0.233 -0.577,0.697 -0.105,0.468 -0.158,1.302 -0.158,2.51 0,1.204 0.053,2.038 0.158,2.501 0.108,0.464 0.301,0.696 0.577,0.696 0.277,0 0.468,-0.234 0.573,-0.7 0.105,-0.471 0.157,-1.322 0.157,-2.551 m -0.137,13.695 -1.855,0 0,-0.933 0.806,0 0,-7.205 1.049,0 0,8.138 z m 1.255,5.764 c 0,1.679 -0.159,2.812 -0.475,3.399 -0.295,0.556 -0.752,0.833 -1.37,0.833 -0.668,0 -1.14,-0.316 -1.418,-0.948 -0.278,-0.612 -0.416,-1.686 -0.416,-3.221 0,-1.535 0.138,-2.608 0.416,-3.22 0.281,-0.629 0.756,-0.943 1.423,-0.943 0.668,0 1.14,0.313 1.418,0.938 0.281,0.646 0.422,1.7 0.422,3.162 m -1.118,0 c 0,-1.201 -0.054,-2.022 -0.163,-2.461 -0.105,-0.461 -0.294,-0.691 -0.567,-0.691 -0.276,0 -0.469,0.232 -0.577,0.696 -0.105,0.467 -0.158,1.303 -0.158,2.509 0,1.205 0.053,2.04 0.158,2.503 0.108,0.464 0.301,0.696 0.577,0.696 0.277,0 0.468,-0.234 0.573,-0.701 0.105,-0.471 0.157,-1.321 0.157,-2.551 m -0.137,13.788 -1.855,0 0,-0.933 0.806,0 0,-7.205 1.049,0 0,8.138 z m 1.255,5.764 c 0,1.679 -0.159,2.812 -0.475,3.399 -0.295,0.555 -0.752,0.833 -1.37,0.833 -0.668,0 -1.14,-0.316 -1.418,-0.949 -0.278,-0.612 -0.416,-1.685 -0.416,-3.22 0,-1.536 0.138,-2.609 0.416,-3.221 0.281,-0.629 0.756,-0.943 1.423,-0.943 0.668,0 1.14,0.312 1.418,0.938 0.281,0.647 0.422,1.701 0.422,3.163 m -1.118,0 c 0,-1.203 -0.054,-2.023 -0.163,-2.461 -0.105,-0.461 -0.294,-0.691 -0.567,-0.691 -0.276,0 -0.469,0.232 -0.577,0.695 -0.105,0.467 -0.158,1.304 -0.158,2.509 0,1.205 0.053,2.039 0.158,2.503 0.108,0.465 0.301,0.696 0.577,0.696 0.277,0 0.468,-0.233 0.573,-0.701 0.105,-0.47 0.157,-1.321 0.157,-2.55 m -0.137,13.696 -1.855,0 0,-0.934 0.806,0 0,-7.204 1.049,0 0,8.138 z m -1.049,11.158 1.049,0 0,8.138 -1.855,0 0,-0.933 0.806,0 0,-7.205 z m 0.459,-1.163 c -0.668,0 -1.14,-0.315 -1.418,-0.948 -0.278,-0.612 -0.416,-1.685 -0.416,-3.221 0,-1.535 0.138,-2.608 0.416,-3.22 0.281,-0.629 0.756,-0.943 1.423,-0.943 0.668,0 1.14,0.312 1.418,0.937 0.281,0.648 0.422,1.702 0.422,3.163 0,1.679 -0.159,2.813 -0.475,3.4 -0.295,0.555 -0.752,0.832 -1.37,0.832 m 0.727,-4.232 c 0,-1.202 -0.054,-2.022 -0.163,-2.461 -0.105,-0.46 -0.294,-0.691 -0.567,-0.691 -0.276,0 -0.469,0.233 -0.577,0.696 -0.105,0.467 -0.158,1.303 -0.158,2.509 0,1.205 0.053,2.039 0.158,2.503 0.108,0.464 0.301,0.695 0.577,0.695 0.277,0 0.468,-0.233 0.573,-0.7 0.105,-0.47 0.157,-1.321 0.157,-2.551 m 4.283,-40.074 -1.856,0 0,-0.932 0.807,0 0,-7.204 1.049,0 0,8.136 z m 1.254,5.764 c 0,1.68 -0.158,2.813 -0.474,3.4 -0.295,0.555 -0.752,0.832 -1.371,0.832 -0.667,0 -1.14,-0.316 -1.417,-0.948 -0.278,-0.611 -0.417,-1.685 -0.417,-3.221 0,-1.535 0.139,-2.608 0.417,-3.219 0.281,-0.629 0.755,-0.944 1.423,-0.944 0.667,0 1.14,0.313 1.417,0.938 0.282,0.646 0.422,1.701 0.422,3.162 m -1.117,0 c 0,-1.201 -0.055,-2.022 -0.163,-2.461 -0.105,-0.46 -0.294,-0.69 -0.567,-0.69 -0.277,0 -0.469,0.232 -0.578,0.696 -0.105,0.467 -0.158,1.303 -0.158,2.508 0,1.205 0.053,2.04 0.158,2.504 0.109,0.463 0.301,0.695 0.578,0.695 0.276,0 0.467,-0.233 0.572,-0.7 0.105,-0.472 0.158,-1.322 0.158,-2.552 m -0.137,13.788 -1.856,0 0,-0.933 0.807,0 0,-7.205 1.049,0 0,8.138 z m 1.254,5.764 c 0,1.679 -0.158,2.812 -0.474,3.399 -0.295,0.556 -0.752,0.833 -1.371,0.833 -0.667,0 -1.14,-0.316 -1.417,-0.948 -0.278,-0.612 -0.417,-1.686 -0.417,-3.221 0,-1.535 0.139,-2.609 0.417,-3.221 0.281,-0.628 0.755,-0.943 1.423,-0.943 0.667,0 1.14,0.314 1.417,0.939 0.282,0.646 0.422,1.7 0.422,3.162 m -1.117,0 c 0,-1.201 -0.055,-2.023 -0.163,-2.461 -0.105,-0.461 -0.294,-0.691 -0.567,-0.691 -0.277,0 -0.469,0.232 -0.578,0.696 -0.105,0.467 -0.158,1.303 -0.158,2.508 0,1.206 0.053,2.04 0.158,2.504 0.109,0.464 0.301,0.696 0.578,0.696 0.276,0 0.467,-0.234 0.572,-0.702 0.105,-0.47 0.158,-1.32 0.158,-2.55 m -0.137,13.696 -1.856,0 0,-0.933 0.807,0 0,-7.205 1.049,0 0,8.138 z m -2.008,2.606 c 0.281,-0.628 0.755,-0.943 1.423,-0.943 0.667,0 1.14,0.313 1.417,0.939 0.282,0.646 0.422,1.7 0.422,3.162 0,1.679 -0.158,2.812 -0.474,3.399 -0.295,0.555 -0.752,0.833 -1.371,0.833 -0.667,0 -1.14,-0.316 -1.417,-0.949 -0.278,-0.611 -0.417,-1.685 -0.417,-3.22 0,-1.536 0.139,-2.609 0.417,-3.221 m 0.679,3.21 c 0,1.205 0.053,2.04 0.158,2.503 0.109,0.464 0.301,0.697 0.578,0.697 0.276,0 0.467,-0.234 0.572,-0.702 0.105,-0.47 0.158,-1.321 0.158,-2.55 0,-1.202 -0.055,-2.023 -0.163,-2.462 -0.105,-0.46 -0.294,-0.691 -0.567,-0.691 -0.277,0 -0.469,0.233 -0.578,0.697 -0.105,0.466 -0.158,1.303 -0.158,2.508 m 1.329,-64.287 -1.856,0 0,-0.933 0.807,0 0,-7.204 1.049,0 0,8.137 z m -2.008,2.607 c 0.281,-0.629 0.755,-0.944 1.423,-0.944 0.667,0 1.14,0.313 1.417,0.939 0.282,0.646 0.422,1.7 0.422,3.162 0,1.68 -0.158,2.812 -0.474,3.399 -0.295,0.555 -0.752,0.833 -1.371,0.833 -0.667,0 -1.14,-0.316 -1.417,-0.949 -0.278,-0.611 -0.417,-1.684 -0.417,-3.221 0,-1.535 0.139,-2.608 0.417,-3.219 m 0.679,3.21 c 0,1.205 0.053,2.039 0.158,2.503 0.109,0.463 0.301,0.696 0.578,0.696 0.276,0 0.467,-0.233 0.572,-0.701 0.105,-0.471 0.158,-1.322 0.158,-2.551 0,-1.202 -0.055,-2.023 -0.163,-2.461 -0.105,-0.461 -0.294,-0.691 -0.567,-0.691 -0.277,0 -0.469,0.232 -0.578,0.696 -0.105,0.467 -0.158,1.304 -0.158,2.509 M -3.961,9.069 c -0.059,0 -0.095,-0.037 -0.151,-0.042 l 1.986,-4.36 c 10e-4,0.064 0.01,0.104 0.01,0.17 0,1.68 -0.159,2.812 -0.475,3.399 -0.295,0.556 -0.752,0.833 -1.37,0.833"
             style="fill:#0e71b8;fill-opacity:1;fill-rule:nonzero;stroke:none"
             id="path22"
             inkscape:connector-curvature="0" /></g><g
           id="g24"
           transform="translate(153.3354,153.0313)"><path
             d="m 0,0 c 0.34,0.391 0.712,0.751 1.02,1.173 0,0 -0.381,0.355 -0.9,0.841 C 0.116,1.091 0.072,0.444 0,0 m -1.312,3.351 c -0.321,0.3 -0.635,0.592 -0.996,0.929 -0.081,-0.559 -0.13,-1.229 -0.13,-2.059 0,-1.535 0.139,-2.609 0.417,-3.22 0.12,-0.269 0.293,-0.45 0.483,-0.605 0.254,0.23 0.512,0.457 0.752,0.7 -0.174,0.088 -0.317,0.26 -0.398,0.606 -0.105,0.468 -0.157,1.304 -0.157,2.509 0,0.449 0.014,0.794 0.029,1.14 m -3.121,-0.336 0,3.246 c -0.349,0.326 -0.698,0.65 -1.049,0.977 l 0,-4.223 1.049,0 z m -4.547,4.702 0,2.769 c -0.408,0.378 -0.739,0.683 -1.049,0.968 l 0,-3.737 1.049,0 z M -13.4,8.793 C -13.74,8.539 -14.084,8.29 -14.448,8.09 l 0,-5.075 1.048,0 0,5.778 z m -8.881,-5.778 0,4.761 c -0.356,0.183 -0.708,0.381 -1.049,0.625 l 0,-5.386 1.049,0 z M -24.289,0.74 c -0.278,-0.611 -0.416,-1.684 -0.416,-3.22 0,-1.536 0.138,-2.609 0.416,-3.22 0.281,-0.629 0.755,-0.944 1.423,-0.944 0.667,0 1.14,0.313 1.418,0.939 0.281,0.645 0.421,1.7 0.421,3.162 0,1.679 -0.158,2.813 -0.474,3.399 -0.295,0.556 -0.752,0.832 -1.37,0.832 -0.668,0 -1.141,-0.315 -1.418,-0.948 m 0.68,-3.23 c 0,1.205 0.052,2.039 0.157,2.503 0.109,0.464 0.301,0.696 0.578,0.696 0.277,0 0.467,-0.234 0.572,-0.701 0.105,-0.471 0.158,-1.321 0.158,-2.551 0,-1.202 -0.054,-2.022 -0.163,-2.461 -0.105,-0.461 -0.294,-0.691 -0.567,-0.691 -0.277,0 -0.469,0.232 -0.578,0.696 -0.105,0.467 -0.157,1.303 -0.157,2.509 m 5.519,-4.712 c 0.082,0 0.148,0.013 0.229,0.014 l 0,3.583 -1.856,0 0,-0.933 0.807,0 0,-2.611 c 0.281,-0.007 0.535,-0.053 0.82,-0.053 m 1.061,6.198 c 0.281,0.647 0.422,1.699 0.422,3.162 0,1.68 -0.158,2.813 -0.475,3.4 -0.295,0.555 -0.751,0.833 -1.37,0.833 -0.667,0 -1.14,-0.317 -1.417,-0.949 -0.278,-0.612 -0.417,-1.685 -0.417,-3.221 0,-1.535 0.139,-2.609 0.417,-3.22 0.28,-0.629 0.755,-0.943 1.423,-0.943 0.667,0 1.14,0.313 1.417,0.938 m -0.696,3.162 c 0,-1.201 -0.054,-2.022 -0.162,-2.462 -0.105,-0.46 -0.294,-0.689 -0.567,-0.689 -0.277,0 -0.47,0.231 -0.578,0.695 -0.105,0.468 -0.158,1.304 -0.158,2.509 0,1.205 0.053,2.04 0.158,2.503 0.108,0.464 0.301,0.696 0.578,0.696 0.276,0 0.467,-0.234 0.572,-0.701 0.105,-0.471 0.157,-1.321 0.157,-2.551 m 5.58,-4.701 c 0,1.679 -0.158,2.813 -0.474,3.399 -0.295,0.556 -0.752,0.832 -1.371,0.832 -0.667,0 -1.14,-0.315 -1.417,-0.948 -0.278,-0.611 -0.417,-1.684 -0.417,-3.22 0,-1.536 0.139,-2.609 0.417,-3.22 0.281,-0.629 0.755,-0.944 1.423,-0.944 0.667,0 1.14,0.313 1.417,0.939 0.281,0.645 0.422,1.7 0.422,3.162 m -1.117,0 c 0,-1.202 -0.055,-2.022 -0.163,-2.461 -0.105,-0.461 -0.294,-0.691 -0.567,-0.691 -0.277,0 -0.47,0.232 -0.578,0.696 -0.105,0.467 -0.157,1.303 -0.157,2.509 0,1.205 0.052,2.039 0.157,2.503 0.108,0.464 0.301,0.696 0.578,0.696 0.276,0 0.467,-0.234 0.572,-0.701 0.105,-0.471 0.158,-1.321 0.158,-2.551 m 3.711,-3.521 c 0.202,0.063 0.373,0.155 0.571,0.221 l 0,2.238 -1.855,0 0,-0.933 0.806,0 0,-1.629 c 0.15,0.043 0.331,0.058 0.478,0.103 m 1.404,5.06 c 0.281,0.647 0.422,1.699 0.422,3.162 0,1.68 -0.159,2.813 -0.475,3.4 -0.295,0.555 -0.752,0.833 -1.37,0.833 -0.668,0 -1.14,-0.317 -1.418,-0.949 -0.277,-0.612 -0.416,-1.685 -0.416,-3.221 0,-1.535 0.139,-2.609 0.416,-3.22 0.281,-0.629 0.756,-0.943 1.423,-0.943 0.668,0 1.14,0.313 1.418,0.938 m -0.696,3.162 c 0,-1.201 -0.054,-2.022 -0.163,-2.462 -0.105,-0.46 -0.294,-0.689 -0.567,-0.689 -0.276,0 -0.469,0.231 -0.577,0.695 -0.105,0.468 -0.158,1.304 -0.158,2.509 0,1.205 0.053,2.04 0.158,2.503 0.108,0.464 0.301,0.696 0.577,0.696 0.277,0 0.468,-0.234 0.573,-0.701 0.105,-0.471 0.157,-1.321 0.157,-2.551 m 3.172,-6.601 c -0.053,0.485 -0.09,1.09 -0.09,1.953 0,1.205 0.052,2.039 0.158,2.503 0.108,0.464 0.301,0.696 0.577,0.696 0.277,0 0.468,-0.234 0.573,-0.701 0.105,-0.471 0.157,-1.321 0.157,-2.551 0,-0.448 -0.015,-0.789 -0.03,-1.131 0.379,0.234 0.767,0.459 1.124,0.714 0.004,0.151 0.024,0.256 0.024,0.417 0,1.679 -0.159,2.813 -0.475,3.399 -0.295,0.556 -0.752,0.832 -1.37,0.832 -0.668,0 -1.14,-0.315 -1.418,-0.948 -0.277,-0.611 -0.416,-1.684 -0.416,-3.22 0,-1.071 0.092,-1.834 0.227,-2.456 0.333,0.152 0.64,0.328 0.959,0.493 M -28.132,-5.38 c 0.35,-0.139 0.688,-0.291 1.049,-0.413 l 0,2.188 -1.855,0 0,-0.933 0.806,0 0,-0.842 z m 1.882,4.376 c 0.281,0.647 0.422,1.699 0.422,3.162 0,1.68 -0.159,2.813 -0.475,3.4 -0.295,0.555 -0.752,0.833 -1.37,0.833 -0.668,0 -1.14,-0.317 -1.418,-0.949 -0.278,-0.612 -0.416,-1.685 -0.416,-3.221 0,-1.535 0.138,-2.609 0.416,-3.22 0.281,-0.629 0.755,-0.943 1.423,-0.943 0.667,0 1.14,0.313 1.418,0.938 m -0.696,3.162 c 0,-1.201 -0.054,-2.022 -0.163,-2.462 -0.105,-0.46 -0.294,-0.689 -0.567,-0.689 -0.276,0 -0.469,0.231 -0.578,0.695 -0.105,0.468 -0.157,1.304 -0.157,2.509 0,1.205 0.052,2.04 0.157,2.503 0.109,0.464 0.302,0.696 0.578,0.696 0.277,0 0.467,-0.234 0.573,-0.701 0.105,-0.471 0.157,-1.321 0.157,-2.551 m -0.137,5.559 0,5.406 c -0.415,0.835 -0.794,1.735 -1.119,2.731 l -0.736,0 0,-0.933 0.806,0 0,-7.204 1.049,0 z m -15.156,3.436 0,-0.492 c 0.049,-0.149 0.104,-0.294 0.156,-0.441 l 0.65,0 0,-1.64 c 0.181,-0.447 0.335,-0.915 0.534,-1.348 0.157,-0.344 0.348,-0.646 0.515,-0.978 l 0,4.899 -1.855,0 z m 2.687,2.601 c 0.282,0.647 0.422,1.701 0.422,3.162 0,1.68 -0.158,2.813 -0.474,3.4 -0.295,0.555 -0.752,0.833 -1.371,0.833 -0.667,0 -1.14,-0.317 -1.417,-0.949 -0.278,-0.611 -0.417,-1.685 -0.417,-3.22 0,-1.536 0.139,-2.609 0.417,-3.22 0.281,-0.629 0.755,-0.944 1.423,-0.944 0.667,0 1.14,0.313 1.417,0.938 m -0.695,3.162 c 0,-1.201 -0.055,-2.022 -0.163,-2.461 -0.105,-0.46 -0.294,-0.69 -0.567,-0.69 -0.277,0 -0.469,0.232 -0.578,0.695 -0.105,0.468 -0.158,1.304 -0.158,2.509 0,1.205 0.053,2.04 0.158,2.504 0.109,0.464 0.301,0.695 0.578,0.695 0.276,0 0.467,-0.233 0.572,-0.7 0.105,-0.471 0.158,-1.322 0.158,-2.552 m 3.234,-9.199 1.048,0 0,8.137 -1.855,0 0,-0.933 0.807,0 0,-7.204 z m 5.51,3.436 -1.855,0 0,-0.933 0.807,0 0,-7.205 1.048,0 0,8.138 z m -2.008,2.607 c 0.282,-0.629 0.756,-0.944 1.423,-0.944 0.668,0 1.141,0.313 1.418,0.938 0.281,0.647 0.422,1.701 0.422,3.162 0,1.68 -0.158,2.813 -0.475,3.4 -0.295,0.555 -0.752,0.833 -1.37,0.833 -0.667,0 -1.14,-0.317 -1.418,-0.949 -0.277,-0.611 -0.416,-1.685 -0.416,-3.22 0,-1.536 0.139,-2.609 0.416,-3.22 m 0.68,3.209 c 0,1.205 0.053,2.04 0.158,2.504 0.108,0.464 0.301,0.695 0.577,0.695 0.277,0 0.468,-0.233 0.573,-0.7 0.105,-0.471 0.157,-1.322 0.157,-2.552 0,-1.201 -0.054,-2.022 -0.162,-2.461 -0.105,-0.46 -0.295,-0.69 -0.568,-0.69 -0.276,0 -0.469,0.232 -0.577,0.695 -0.105,0.468 -0.158,1.304 -0.158,2.509 m -5.525,-14.13 c 0.354,-0.509 0.703,-1.026 1.085,-1.498 -0.008,0.283 -0.022,0.528 -0.022,0.87 0,1.205 0.052,2.04 0.158,2.503 0.108,0.464 0.301,0.696 0.577,0.696 0.277,0 0.468,-0.234 0.573,-0.701 0.105,-0.471 0.157,-1.321 0.157,-2.551 0,-1.078 -0.05,-1.804 -0.137,-2.268 0.278,-0.29 0.55,-0.588 0.841,-0.863 0.274,0.65 0.414,1.688 0.414,3.131 0,1.68 -0.158,2.813 -0.475,3.4 -0.295,0.555 -0.752,0.833 -1.37,0.833 -0.668,0 -1.14,-0.317 -1.418,-0.949 -0.234,-0.515 -0.346,-1.433 -0.383,-2.603 m 2.512,19.435 c 0.005,-0.225 0.016,-0.397 0.016,-0.656 0,-1.202 -0.054,-2.022 -0.162,-2.461 -0.105,-0.461 -0.294,-0.691 -0.568,-0.691 -0.276,0 -0.469,0.232 -0.577,0.696 -0.106,0.467 -0.158,1.303 -0.158,2.509 0,0.197 0.01,0.322 0.013,0.5 l -1.087,-0.079 c -0.003,-0.151 -0.022,-0.249 -0.022,-0.411 0,-1.535 0.139,-2.609 0.416,-3.22 0.281,-0.629 0.756,-0.943 1.423,-0.943 0.668,0 1.141,0.312 1.418,0.938 0.281,0.646 0.422,1.7 0.422,3.162 0,0.293 -0.032,0.476 -0.042,0.735 l -1.092,-0.079 z m 4.446,-26.028 c 0.35,-0.214 0.682,-0.453 1.046,-0.647 0.068,0.522 0.104,1.137 0.104,1.858 0,1.679 -0.158,2.813 -0.475,3.399 -0.295,0.556 -0.752,0.832 -1.37,0.832 -0.667,0 -1.14,-0.315 -1.418,-0.948 -0.244,-0.537 -0.361,-1.496 -0.391,-2.749 0.288,-0.234 0.551,-0.5 0.85,-0.721 0.072,-0.054 0.158,-0.089 0.231,-0.143 -0.001,0.139 -0.01,0.231 -0.01,0.383 0,1.205 0.053,2.039 0.158,2.503 0.108,0.464 0.301,0.696 0.577,0.696 0.277,0 0.468,-0.234 0.573,-0.701 0.105,-0.471 0.157,-1.321 0.157,-2.551 0,-0.48 -0.015,-0.853 -0.032,-1.211"
             style="fill:#0e71b8;fill-opacity:1;fill-rule:nonzero;stroke:none"
             id="path26"
             inkscape:connector-curvature="0" /></g><g
           id="g28"
           transform="translate(315.7822,107.5547)"><path
             d="m 0,0 2.062,0 c 2.386,0 4.042,0.41 4.967,1.231 0.752,0.659 1.292,1.614 1.619,2.866 0.335,1.308 0.503,2.999 0.503,5.072 0,2.26 -0.152,3.995 -0.454,5.206 -0.303,1.252 -0.81,2.268 -1.521,3.049 -0.475,0.52 -1.014,0.881 -1.619,1.085 -0.655,0.211 -1.46,0.317 -2.417,0.317 L 0,18.826 0,0 Z m 2.551,16.692 0.319,0 c 1.374,0 2.319,-0.545 2.834,-1.634 C 6.219,13.969 6.478,11.973 6.478,9.071 6.478,6.373 6.207,4.556 5.667,3.621 5.144,2.686 4.105,2.219 2.551,2.219 l 0,14.473 z M 15.961,0 l 6.783,0 0,2.146 -4.232,0 0,6.426 3.753,0 0,2.146 -3.753,0 0,5.962 4.232,0 0,2.146 -6.783,0 0,-18.826 z m 22.868,0 2.527,0 -0.135,8.206 c 0,0.235 -0.002,0.447 -0.007,0.634 -0.004,0.187 -0.011,0.345 -0.019,0.475 l -0.146,2.329 -0.135,1.914 c -0.008,0.106 -0.02,0.234 -0.036,0.385 -0.017,0.15 -0.037,0.331 -0.062,0.542 0.049,-0.211 0.092,-0.398 0.129,-0.561 0.037,-0.162 0.063,-0.301 0.08,-0.414 0.195,-0.911 0.41,-1.78 0.642,-2.61 0.233,-0.829 0.48,-1.638 0.741,-2.426 L 45.261,0 l 2.388,0 0,18.826 -2.552,0 0,-7.023 c 0,-1.041 0.049,-2.15 0.147,-3.329 0.099,-1.179 0.25,-2.495 0.454,-3.95 -0.564,2.406 -1.214,4.669 -1.95,6.791 l -2.539,7.511 -2.38,0 0,-18.826 z m 14.955,0 2.453,0 0.724,3.67 3.753,0 0.712,-3.67 2.527,0 -4.061,18.826 -1.987,0 L 53.784,0 Z m 3.532,5.633 0.467,2.414 c 0.245,1.301 0.457,2.53 0.637,3.689 0.18,1.158 0.327,2.302 0.442,3.432 0.237,-2.317 0.544,-4.495 0.92,-6.535 l 0.564,-3 -3.03,0 z M 69.72,0 72.247,0 72.112,8.206 c 0,0.235 -0.003,0.447 -0.007,0.634 -0.004,0.187 -0.011,0.345 -0.02,0.475 l -0.145,2.329 -0.135,1.914 c -0.008,0.106 -0.02,0.234 -0.037,0.385 -0.016,0.15 -0.037,0.331 -0.061,0.542 0.049,-0.211 0.092,-0.398 0.129,-0.561 0.036,-0.162 0.063,-0.301 0.079,-0.414 0.196,-0.911 0.41,-1.78 0.643,-2.61 0.233,-0.829 0.48,-1.638 0.741,-2.426 L 76.152,0 l 2.387,0 0,18.826 -2.551,0 0,-7.023 c 0,-1.041 0.049,-2.15 0.147,-3.329 0.098,-1.179 0.249,-2.495 0.454,-3.95 -0.564,2.406 -1.214,4.669 -1.95,6.791 l -2.54,7.511 -2.379,0 0,-18.826 z m 14.513,16.607 2.944,0 0,-16.607 2.502,0 0,16.607 2.858,0 0,2.219 -8.304,0 0,-2.219 z M 98.219,0 l 6.783,0 0,2.146 -4.231,0 0,6.426 3.752,0 0,2.146 -3.752,0 0,5.962 4.231,0 0,2.146 -6.783,0 0,-18.826 z m 17.113,19.082 c -1.308,0 -2.351,-0.435 -3.128,-1.305 -0.769,-0.862 -1.153,-2.028 -1.153,-3.499 0,-1.09 0.196,-1.992 0.589,-2.707 0.204,-0.366 0.519,-0.793 0.944,-1.28 0.426,-0.488 0.961,-1.049 1.607,-1.683 0.417,-0.414 0.765,-0.79 1.043,-1.128 0.278,-0.337 0.495,-0.636 0.65,-0.896 0.304,-0.545 0.454,-1.158 0.454,-1.841 0,-0.789 -0.196,-1.412 -0.589,-1.872 -0.392,-0.459 -0.936,-0.688 -1.631,-0.688 -0.744,0 -1.57,0.329 -2.478,0.987 l 0,-2.512 c 0.769,-0.593 1.697,-0.89 2.784,-0.89 1.292,0 2.351,0.459 3.177,1.378 0.826,0.943 1.239,2.142 1.239,3.597 0,1.073 -0.188,1.979 -0.564,2.719 -0.376,0.764 -1.084,1.67 -2.122,2.719 -0.564,0.561 -1.024,1.04 -1.38,1.439 -0.356,0.398 -0.611,0.723 -0.767,0.975 -0.302,0.472 -0.453,1.037 -0.453,1.695 0,0.748 0.212,1.345 0.637,1.792 0.425,0.472 0.973,0.708 1.644,0.708 0.621,0 1.321,-0.277 2.098,-0.83 l 0,2.476 c -0.826,0.43 -1.693,0.646 -2.601,0.646"
             style="fill:#0e71b8;fill-opacity:1;fill-rule:nonzero;stroke:none"
             id="path30"
             inkscape:connector-curvature="0" /></g><g
           id="g32"
           transform="translate(356.0303,140.4111)"><path
             d="M 0,0 2.527,0 2.392,8.206 C 2.392,8.441 2.39,8.653 2.385,8.84 2.381,9.027 2.374,9.186 2.365,9.315 L 2.22,11.645 2.085,13.559 C 2.077,13.664 2.064,13.792 2.048,13.943 2.032,14.093 2.012,14.274 1.987,14.485 2.036,14.274 2.079,14.087 2.116,13.924 2.153,13.762 2.179,13.623 2.195,13.51 2.391,12.6 2.605,11.73 2.838,10.9 3.071,10.071 3.318,9.262 3.579,8.475 L 6.432,0 8.82,0 l 0,18.826 -2.552,0 0,-7.023 c 0,-1.041 0.049,-2.15 0.147,-3.328 C 6.513,7.295 6.665,5.979 6.869,4.524 6.305,6.93 5.655,9.193 4.919,11.315 L 2.38,18.826 0,18.826 0,0 Z m 16.021,5.523 c 0,-2.056 0.242,-3.446 0.725,-4.169 0.694,-1.057 1.893,-1.585 3.594,-1.585 1.545,0 2.694,0.41 3.446,1.231 0.63,0.724 0.944,2.109 0.944,4.158 l 0,13.668 -2.501,0 0,-13.668 c 0,-1.22 -0.124,-2.029 -0.368,-2.427 -0.238,-0.39 -0.728,-0.585 -1.472,-0.585 -0.744,0 -1.243,0.223 -1.497,0.671 -0.246,0.446 -0.368,1.349 -0.368,2.706 l 0,13.303 -2.503,0 0,-13.303 z M 31.259,0 33.663,0 34.399,12.974 C 34.53,11.916 34.675,10.907 34.834,9.943 34.994,8.98 35.176,8.031 35.38,7.096 L 36.877,0 l 1.717,0 1.594,8.218 0.123,0.646 0.319,1.719 c 0.041,0.229 0.088,0.508 0.141,0.842 0.053,0.333 0.113,0.723 0.178,1.17 l 0.061,0.379 c 0.009,-0.09 0.015,-0.161 0.019,-0.214 0.004,-0.053 0.006,-0.088 0.006,-0.104 l 0.061,-2.316 0.111,-2.524 c 0,-0.155 0.006,-0.35 0.018,-0.586 0.012,-0.235 0.027,-0.516 0.043,-0.84 L 41.697,0 l 2.441,0 -1.742,18.826 -2.208,0 L 38.704,11.278 38.422,9.925 38.103,7.877 37.748,5.718 C 37.739,5.687 37.73,5.631 37.723,5.554 37.715,5.477 37.703,5.369 37.686,5.231 c -0.139,1.056 -0.292,2.066 -0.46,3.03 -0.167,0.964 -0.354,1.925 -0.558,2.884 L 35,18.826 l -2.183,0 L 31.259,0 Z m 19.26,0 6.783,0 0,2.146 -4.232,0 0,6.426 3.754,0 0,2.146 -3.754,0 0,5.962 4.232,0 0,2.146 -6.783,0 0,-18.826 z m 2.073,21.557 0.908,-1.036 3.065,2.133 -1.336,1.463 -2.637,-2.56 z M 63.916,0 l 2.551,0 0,9.218 L 69.938,0 72.527,0 69.043,9.157 c 0.842,0.196 1.491,0.701 1.944,1.518 0.453,0.817 0.681,1.9 0.681,3.249 0,1.756 -0.429,3.061 -1.288,3.914 -0.679,0.659 -1.713,0.988 -3.103,0.988 l -3.361,0 0,-18.826 z m 2.551,16.741 0.429,0 c 0.401,0 0.747,-0.061 1.037,-0.183 0.29,-0.122 0.527,-0.313 0.712,-0.573 0.183,-0.26 0.318,-0.598 0.404,-1.012 0.086,-0.414 0.129,-0.914 0.129,-1.499 0,-1.081 -0.204,-1.85 -0.613,-2.305 -0.409,-0.456 -1.108,-0.683 -2.098,-0.683 l 0,6.255 z M 78.771,0 l 2.552,0 0,18.826 -2.552,0 0,-18.826 z m 18.158,1.926 c 0.711,1.317 1.067,3.671 1.067,7.06 0,3.747 -0.372,6.357 -1.116,7.828 -0.753,1.504 -2.053,2.256 -3.901,2.256 -1.758,0 -3.005,-0.683 -3.741,-2.049 -0.736,-1.357 -1.104,-3.669 -1.104,-6.938 0,-3.739 0.376,-6.405 1.128,-7.998 0.76,-1.545 2.061,-2.316 3.901,-2.316 0.867,0 1.688,0.215 2.465,0.646 l 1.301,-1.842 1.606,1.147 -1.606,2.206 z M 92.5,4.768 94.12,2.451 C 93.792,2.224 93.449,2.109 93.089,2.109 c -0.899,0 -1.505,0.534 -1.815,1.598 -0.311,1.113 -0.466,3.194 -0.466,6.242 0,2.715 0.151,4.52 0.454,5.414 0.301,0.935 0.887,1.402 1.754,1.402 0.924,0 1.541,-0.549 1.852,-1.646 0.311,-1.138 0.466,-3.325 0.466,-6.559 0,-1.513 -0.086,-2.87 -0.258,-4.073 L 94.021,5.975 92.5,4.768 Z m 12.293,0.755 c 0,-2.056 0.241,-3.446 0.724,-4.169 0.695,-1.057 1.893,-1.585 3.594,-1.585 1.546,0 2.695,0.41 3.447,1.231 0.63,0.724 0.944,2.109 0.944,4.158 l 0,13.668 -2.502,0 0,-13.668 c 0,-1.22 -0.123,-2.029 -0.368,-2.427 -0.237,-0.39 -0.728,-0.585 -1.472,-0.585 -0.744,0 -1.243,0.223 -1.496,0.671 -0.246,0.446 -0.368,1.349 -0.368,2.706 l 0,13.303 -2.503,0 0,-13.303 z m 15.9,-5.523 6.783,0 0,2.146 -4.232,0 0,6.426 3.753,0 0,2.146 -3.753,0 0,5.962 4.232,0 0,2.146 -6.783,0 0,-18.826 z"
             style="fill:#0e71b8;fill-opacity:1;fill-rule:nonzero;stroke:none"
             id="path34"
             inkscape:connector-curvature="0" /></g><g
           id="g36"
           transform="translate(315.7822,139.2158)"><path
             d="m 0,0 2.062,0 c 2.386,0 4.042,0.41 4.967,1.231 0.752,0.66 1.292,1.615 1.619,2.867 0.335,1.307 0.503,2.999 0.503,5.072 0,2.26 -0.152,3.994 -0.454,5.205 -0.303,1.253 -0.81,2.269 -1.521,3.049 -0.475,0.52 -1.014,0.882 -1.619,1.085 -0.655,0.212 -1.46,0.318 -2.417,0.318 L 0,18.827 0,0 Z m 2.551,16.692 0.319,0 c 1.374,0 2.319,-0.545 2.834,-1.633 C 6.219,13.97 6.478,11.974 6.478,9.071 6.478,6.373 6.207,4.557 5.667,3.621 5.144,2.687 4.105,2.22 2.551,2.22 l 0,14.472 z M 15.961,5.523 c 0,-2.055 0.241,-3.446 0.723,-4.169 0.695,-1.056 1.893,-1.585 3.594,-1.585 1.546,0 2.695,0.411 3.447,1.231 0.63,0.724 0.945,2.109 0.945,4.158 l 0,13.669 -2.503,0 0,-13.669 c 0,-1.22 -0.122,-2.028 -0.368,-2.427 -0.236,-0.389 -0.728,-0.585 -1.472,-0.585 -0.744,0 -1.243,0.223 -1.496,0.671 -0.245,0.447 -0.368,1.349 -0.368,2.706 l 0,13.304 -2.502,0 0,-13.304 z"
             style="fill:#0e71b8;fill-opacity:1;fill-rule:nonzero;stroke:none"
             id="path38"
             inkscape:connector-curvature="0" /></g><g
           id="g40"
           transform="translate(315.7822,173.0508)"><path
             d="m 0,0 2.062,0 c 2.386,0 4.042,0.41 4.967,1.231 0.752,0.659 1.292,1.614 1.619,2.866 0.335,1.308 0.503,2.999 0.503,5.072 0,2.26 -0.152,3.995 -0.454,5.206 -0.303,1.252 -0.81,2.268 -1.521,3.049 -0.475,0.52 -1.014,0.881 -1.619,1.085 -0.655,0.211 -1.46,0.317 -2.417,0.317 L 0,18.826 0,0 Z m 2.551,16.692 0.319,0 c 1.374,0 2.319,-0.545 2.834,-1.634 C 6.219,13.969 6.478,11.973 6.478,9.071 6.478,6.373 6.207,4.556 5.667,3.621 5.144,2.686 4.105,2.219 2.551,2.219 l 0,14.473 z M 15.961,0 l 6.783,0 0,2.146 -4.232,0 0,6.426 3.753,0 0,2.146 -3.753,0 0,5.962 4.232,0 0,2.146 -6.783,0 0,-18.826 z m 17.113,19.082 c -1.308,0 -2.351,-0.435 -3.128,-1.305 -0.769,-0.862 -1.153,-2.028 -1.153,-3.499 0,-1.09 0.196,-1.992 0.589,-2.707 0.204,-0.366 0.519,-0.793 0.944,-1.28 C 30.752,9.803 31.287,9.242 31.933,8.608 32.35,8.194 32.698,7.818 32.976,7.48 33.254,7.143 33.471,6.844 33.626,6.584 33.929,6.039 34.08,5.426 34.08,4.743 34.08,3.954 33.884,3.331 33.491,2.871 33.099,2.412 32.555,2.183 31.86,2.183 c -0.744,0 -1.57,0.329 -2.478,0.987 l 0,-2.512 c 0.769,-0.593 1.697,-0.89 2.784,-0.89 1.292,0 2.351,0.459 3.177,1.378 0.826,0.943 1.239,2.142 1.239,3.597 0,1.073 -0.188,1.979 -0.564,2.719 -0.376,0.764 -1.084,1.67 -2.122,2.719 -0.564,0.561 -1.024,1.04 -1.38,1.439 -0.356,0.398 -0.611,0.723 -0.767,0.975 -0.302,0.472 -0.453,1.037 -0.453,1.695 0,0.748 0.212,1.345 0.637,1.792 0.425,0.472 0.973,0.708 1.644,0.708 0.621,0 1.321,-0.277 2.098,-0.83 l 0,2.476 c -0.826,0.43 -1.693,0.646 -2.601,0.646 m 23.114,0 c -1.309,0 -2.351,-0.435 -3.128,-1.305 -0.769,-0.862 -1.153,-2.028 -1.153,-3.499 0,-1.09 0.197,-1.992 0.589,-2.707 0.204,-0.366 0.519,-0.793 0.944,-1.28 0.425,-0.488 0.961,-1.049 1.607,-1.683 0.417,-0.414 0.766,-0.79 1.043,-1.128 0.278,-0.337 0.495,-0.636 0.65,-0.896 0.302,-0.545 0.454,-1.158 0.454,-1.841 0,-0.789 -0.196,-1.412 -0.589,-1.872 -0.393,-0.459 -0.936,-0.688 -1.631,-0.688 -0.745,0 -1.57,0.329 -2.478,0.987 l 0,-2.512 c 0.768,-0.593 1.697,-0.89 2.784,-0.89 1.292,0 2.351,0.459 3.177,1.378 0.826,0.943 1.239,2.142 1.239,3.597 0,1.073 -0.188,1.979 -0.564,2.719 -0.376,0.764 -1.084,1.67 -2.122,2.719 -0.564,0.561 -1.024,1.04 -1.38,1.439 -0.356,0.398 -0.612,0.723 -0.767,0.975 -0.301,0.472 -0.454,1.037 -0.454,1.695 0,0.748 0.213,1.345 0.638,1.792 0.425,0.472 0.974,0.708 1.644,0.708 0.622,0 1.32,-0.277 2.097,-0.83 l 0,2.476 c -0.826,0.43 -1.692,0.646 -2.6,0.646 m 15.25,0 c -1.931,0 -3.364,-0.821 -4.3,-2.463 -0.937,-1.642 -1.405,-4.146 -1.405,-7.511 0,-6.226 1.918,-9.34 5.753,-9.34 0.761,0 1.448,0.171 2.061,0.512 l 0,2.329 c -0.589,-0.26 -1.092,-0.39 -1.509,-0.39 -2.396,0 -3.594,2.325 -3.594,6.974 0,1.293 0.068,2.413 0.202,3.36 0.135,0.946 0.344,1.729 0.626,2.347 0.282,0.617 0.64,1.075 1.073,1.371 0.434,0.297 0.953,0.445 1.558,0.445 0.442,0 0.99,-0.158 1.644,-0.475 l 0,2.28 c -0.694,0.374 -1.398,0.561 -2.109,0.561 M 79.964,0 l 2.551,0 0,18.826 -2.551,0 0,-18.826 z m 9.742,0 6.783,0 0,2.146 -4.232,0 0,6.426 3.754,0 0,2.146 -3.754,0 0,5.962 4.232,0 0,2.146 -6.783,0 0,-18.826 z m 13.398,0 2.525,0 -0.134,8.206 c 0,0.235 -0.003,0.447 -0.007,0.634 -0.005,0.187 -0.01,0.345 -0.02,0.475 l -0.145,2.329 -0.135,1.914 c -0.008,0.106 -0.021,0.234 -0.037,0.385 -0.016,0.15 -0.037,0.331 -0.061,0.542 0.049,-0.211 0.092,-0.398 0.128,-0.561 0.037,-0.162 0.064,-0.301 0.08,-0.414 0.196,-0.911 0.41,-1.78 0.643,-2.61 0.233,-0.829 0.479,-1.638 0.741,-2.426 L 109.535,0 l 2.387,0 0,18.826 -2.551,0 0,-7.023 c 0,-1.041 0.049,-2.15 0.147,-3.329 0.098,-1.179 0.249,-2.495 0.454,-3.95 -0.565,2.406 -1.215,4.669 -1.951,6.791 l -2.539,7.511 -2.378,0 0,-18.826 z m 21.32,19.082 c -1.931,0 -3.364,-0.821 -4.3,-2.463 -0.936,-1.642 -1.404,-4.146 -1.404,-7.511 0,-6.226 1.917,-9.34 5.753,-9.34 0.76,0 1.447,0.171 2.06,0.512 l 0,2.329 c -0.588,-0.26 -1.091,-0.39 -1.508,-0.39 -2.397,0 -3.594,2.325 -3.594,6.974 0,1.293 0.067,2.413 0.202,3.36 0.135,0.946 0.343,1.729 0.625,2.347 0.283,0.617 0.64,1.075 1.074,1.371 0.433,0.297 0.952,0.445 1.558,0.445 0.441,0 0.989,-0.158 1.643,-0.475 l 0,2.28 c -0.695,0.374 -1.398,0.561 -2.109,0.561 M 132.951,0 l 6.783,0 0,2.146 -4.232,0 0,6.426 3.754,0 0,2.146 -3.754,0 0,5.962 4.232,0 0,2.146 -6.783,0 0,-18.826 z m 17.113,19.082 c -1.308,0 -2.351,-0.435 -3.127,-1.305 -0.769,-0.862 -1.154,-2.028 -1.154,-3.499 0,-1.09 0.196,-1.992 0.589,-2.707 0.204,-0.366 0.519,-0.793 0.945,-1.28 0.425,-0.488 0.96,-1.049 1.606,-1.683 0.418,-0.414 0.765,-0.79 1.043,-1.128 0.278,-0.337 0.495,-0.636 0.65,-0.896 0.303,-0.545 0.454,-1.158 0.454,-1.841 0,-0.789 -0.196,-1.412 -0.589,-1.872 -0.392,-0.459 -0.936,-0.688 -1.631,-0.688 -0.744,0 -1.57,0.329 -2.478,0.987 l 0,-2.512 c 0.769,-0.593 1.697,-0.89 2.784,-0.89 1.292,0 2.351,0.459 3.177,1.378 0.826,0.943 1.239,2.142 1.239,3.597 0,1.073 -0.188,1.979 -0.564,2.719 -0.376,0.764 -1.084,1.67 -2.122,2.719 -0.564,0.561 -1.024,1.04 -1.38,1.439 -0.356,0.398 -0.61,0.723 -0.767,0.975 -0.301,0.472 -0.453,1.037 -0.453,1.695 0,0.748 0.212,1.345 0.637,1.792 0.426,0.472 0.974,0.708 1.644,0.708 0.622,0 1.321,-0.277 2.098,-0.83 l 0,2.476 c -0.826,0.43 -1.693,0.646 -2.601,0.646"
             style="fill:#0e71b8;fill-opacity:1;fill-rule:nonzero;stroke:none"
             id="path42"
             inkscape:connector-curvature="0" /></g><g
           id="g44"
           transform="translate(315.7822,205.9072)"><path
             d="m 0,0 6.722,0 0,2.146 -4.171,0 0,16.68 L 0,18.826 0,0 Z m 12.17,0 2.454,0 0.723,3.67 3.754,0 0.712,-3.67 2.526,0 -4.06,18.826 -1.987,0 L 12.17,0 Z m 3.533,5.633 0.466,2.414 c 0.245,1.301 0.458,2.53 0.638,3.689 0.18,1.158 0.327,2.302 0.442,3.432 0.237,-2.317 0.543,-4.495 0.919,-6.535 l 0.565,-3 -3.03,0 z M 28.106,0 31.443,0 c 2.976,0 4.465,1.727 4.465,5.182 0,1.26 -0.193,2.203 -0.577,2.829 -0.376,0.634 -1.075,1.154 -2.097,1.56 0.891,0.317 1.512,0.785 1.864,1.403 0.352,0.617 0.528,1.564 0.528,2.841 0,3.34 -1.354,5.011 -4.061,5.011 l -3.459,0 0,-18.826 z m 2.392,16.777 c 0.017,0.008 0.058,0.013 0.123,0.013 l 0.111,0 0.197,0 c 1.479,0 2.219,-1.017 2.219,-3.049 0,-1.203 -0.193,-2.044 -0.579,-2.524 -0.387,-0.455 -1.077,-0.682 -2.071,-0.682 l 0,6.242 z m 0,-8.254 c 1.027,0 1.745,-0.244 2.156,-0.732 0.419,-0.479 0.629,-1.321 0.629,-2.524 0,-1.17 -0.202,-1.979 -0.604,-2.426 C 32.276,2.394 31.549,2.17 30.498,2.17 l 0,6.353 z m 21.284,5.84 c -0.229,1.333 -0.597,2.361 -1.104,3.085 -0.768,1.081 -1.946,1.622 -3.532,1.622 -1.775,0 -3.034,-0.7 -3.778,-2.098 -0.736,-1.39 -1.104,-3.759 -1.104,-7.108 0,-3.755 0.372,-6.369 1.116,-7.84 0.752,-1.504 2.048,-2.256 3.888,-2.256 1.75,0 2.997,0.699 3.742,2.098 0.744,1.397 1.116,3.759 1.116,7.084 0,2.373 -0.115,4.178 -0.344,5.413 M 48.973,3.499 C 48.654,2.556 48.066,2.085 47.207,2.085 c -0.875,0 -1.472,0.504 -1.791,1.512 -0.311,1.065 -0.466,2.975 -0.466,5.731 0,2.991 0.147,4.982 0.442,5.974 0.302,0.983 0.907,1.475 1.815,1.475 0.908,0 1.509,-0.536 1.803,-1.609 0.295,-1.065 0.442,-3.227 0.442,-6.487 0,-2.52 -0.16,-4.247 -0.479,-5.182 M 58.923,0 l 2.552,0 0,9.218 L 64.946,0 67.534,0 64.051,9.157 c 0.842,0.195 1.49,0.701 1.944,1.518 0.454,0.817 0.681,1.9 0.681,3.249 0,1.756 -0.43,3.061 -1.288,3.914 -0.679,0.659 -1.714,0.988 -3.104,0.988 l -3.361,0 0,-18.826 z m 2.552,16.741 0.429,0 c 0.401,0 0.746,-0.061 1.037,-0.183 0.29,-0.122 0.527,-0.313 0.711,-0.573 0.184,-0.26 0.319,-0.598 0.405,-1.012 0.086,-0.415 0.13,-0.915 0.13,-1.5 0,-1.081 -0.206,-1.849 -0.615,-2.304 -0.409,-0.456 -1.108,-0.683 -2.097,-0.683 l 0,6.255 z M 72.357,0 l 2.453,0 0.724,3.67 3.754,0 0.711,-3.67 2.527,0 -4.06,18.826 -1.987,0 L 72.357,0 Z m 3.533,5.633 0.466,2.414 c 0.245,1.301 0.458,2.53 0.638,3.689 0.18,1.158 0.327,2.302 0.441,3.432 0.237,-2.317 0.544,-4.495 0.92,-6.535 l 0.565,-3 -3.03,0 z m 10.49,10.974 2.943,0 0,-16.607 2.503,0 0,16.607 2.858,0 0,2.219 -8.304,0 0,-2.219 z m 23.295,-2.244 c -0.229,1.333 -0.597,2.361 -1.104,3.085 -0.768,1.081 -1.946,1.622 -3.532,1.622 -1.775,0 -3.034,-0.7 -3.778,-2.098 -0.736,-1.39 -1.104,-3.759 -1.104,-7.108 0,-3.755 0.372,-6.369 1.116,-7.84 0.752,-1.504 2.048,-2.256 3.888,-2.256 1.75,0 2.997,0.699 3.742,2.098 0.744,1.397 1.116,3.759 1.116,7.084 0,2.373 -0.115,4.178 -0.344,5.413 M 106.866,3.499 c -0.319,-0.943 -0.907,-1.414 -1.766,-1.414 -0.875,0 -1.472,0.504 -1.791,1.512 -0.311,1.065 -0.466,2.975 -0.466,5.731 0,2.991 0.147,4.982 0.442,5.974 0.302,0.983 0.907,1.475 1.815,1.475 0.908,0 1.509,-0.536 1.803,-1.609 0.295,-1.065 0.442,-3.227 0.442,-6.487 0,-2.52 -0.16,-4.247 -0.479,-5.182 m 9.95,-3.499 2.551,0 0,18.826 -2.551,0 0,-18.826 z m 9.742,0 2.551,0 0,9.218 3.472,-9.218 2.588,0 -3.484,9.157 c 0.842,0.195 1.491,0.701 1.944,1.518 0.454,0.817 0.681,1.9 0.681,3.249 0,1.756 -0.429,3.061 -1.288,3.914 -0.679,0.659 -1.713,0.988 -3.103,0.988 l -3.361,0 0,-18.826 z m 2.551,16.741 0.43,0 c 0.4,0 0.746,-0.061 1.036,-0.183 0.29,-0.122 0.529,-0.313 0.712,-0.573 0.184,-0.26 0.318,-0.598 0.404,-1.012 0.086,-0.415 0.129,-0.915 0.129,-1.5 0,-1.081 -0.204,-1.849 -0.613,-2.304 -0.409,-0.456 -1.108,-0.683 -2.098,-0.683 l 0,6.255 z M 141.414,0 l 6.784,0 0,2.146 -4.232,0 0,6.426 3.753,0 0,2.146 -3.753,0 0,5.962 4.232,0 0,2.146 -6.784,0 0,-18.826 z"
             style="fill:#0e71b8;fill-opacity:1;fill-rule:nonzero;stroke:none"
             id="path46"
             inkscape:connector-curvature="0" /></g><g
           id="g48"
           transform="translate(164.8193,193.7578)"><path
             d="m 0,0 15.125,0 0,3.903 c 0,2.277 0.297,4.229 0.895,5.855 1.789,4.933 4.824,7.4 9.107,7.4 2.981,0 5.421,-1.138 7.319,-3.414 1.734,-2.168 2.602,-4.796 2.602,-7.885 0,-3.794 -0.95,-7.887 -2.85,-12.276 -2.334,-5.365 -5.862,-11.354 -10.584,-17.964 -4.993,-7.046 -8.658,-12.168 -10.991,-15.364 l -4.001,-5.763 c -1.307,-1.894 -2.477,-3.626 -3.512,-5.194 -2.236,-3.423 -3.354,-5.297 -3.354,-5.622 l 0,-14.097 48.872,0 0,15.043 -30.169,0 c 0,0.172 0.216,0.66 0.651,1.464 0.921,1.572 2.277,3.713 4.066,6.424 l 2.764,4.147 c 3.307,5.042 5.801,8.755 7.482,11.141 6.18,8.728 10.11,14.881 11.791,18.459 3.09,6.451 4.635,13.146 4.635,20.086 0,6.721 -2.372,12.604 -7.115,17.646 -4.745,5.042 -10.478,7.562 -17.199,7.562 -7.319,0 -13.228,-2.25 -17.727,-6.749 C 2.602,19.706 0,12.332 0,2.684 L 0,0 Z"
             style="fill:#28436d;fill-opacity:1;fill-rule:nonzero;stroke:none"
             id="path50"
             inkscape:connector-curvature="0" /></g></g></g><g
       id="g52"
       transform="translate(152.2324,138.4053)"><path
         d="m 0,0 -53.061,0 0,86.823 -15.369,0 0,-101.891 68.43,0 L 0,0 Z"
         style="fill:#28436d;fill-opacity:1;fill-rule:nonzero;stroke:none"
         id="path54"
         inkscape:connector-curvature="0" /></g><g
       id="g56"
       transform="translate(226.0708,225.3091)"><path
         d="m 0,0 0,-101.973 15.369,0 0,65.299 21.143,-65.299 16.507,0 L 17.255,0 0,0 Z"
         style="fill:#28436d;fill-opacity:1;fill-rule:nonzero;stroke:none"
         id="path58"
         inkscape:connector-curvature="0" /></g><g
       id="g60"><g
         id="g62"
         clip-path="url(#clipPath64)"><g
           id="g68"
           transform="translate(132.8828,210.9736)"><path
             d="m 0,0 c -4.042,4.86 -6.062,9.638 -6.062,14.336 0,3.003 0.6,5.515 1.802,7.537 1.475,2.511 3.632,3.768 6.472,3.768 2.675,0 4.723,-0.848 6.144,-2.54 1.966,-2.349 3.167,-5.625 3.604,-9.83 l 14.828,2.703 c -0.383,4.478 -1.516,8.438 -3.4,11.879 -1.884,3.44 -4.356,6.115 -7.414,8.028 -3.932,2.457 -8.656,3.686 -14.172,3.686 -5.734,0 -10.54,-1.449 -14.417,-4.346 -6.281,-4.81 -9.421,-11.889 -9.421,-21.236 0,-5.193 1.147,-10.003 3.44,-14.43 2.13,-3.936 5.762,-8.392 10.896,-13.366 6.115,-5.794 10.703,-10.14 13.762,-13.036 3.877,-4.209 5.816,-8.446 5.816,-12.709 0,-2.952 -1.556,-6.805 -1.556,-6.805 l 11.632,-10.818 c 0,0 5.68,11.195 5.571,18.35 -0.055,2.894 -0.819,6.17 -2.294,9.83 -0.602,1.474 -1.393,3.085 -2.376,4.833 -2.076,3.713 -5.025,7.482 -8.847,11.305 -1.147,1.201 -3.522,3.304 -7.127,6.308 C 3.822,-4.042 1.528,-1.857 0,0"
             style="fill:#28436d;fill-opacity:1;fill-rule:nonzero;stroke:none"
             id="path70"
             inkscape:connector-curvature="0" /></g><g
           id="g72"
           transform="translate(83.8022,106.833)"><path
             d="M 0,0 C 1.77,-4.44 5.669,-7.692 10.353,-8.247 6.01,-7.318 2.477,-4.163 0.846,0 L 0,0 Z m 10.892,-8.28 c -0.179,0.013 -0.362,0.012 -0.539,0.033 0.183,-0.04 0.381,-0.029 0.567,-0.061 2.389,-2.342 5.423,-3.953 8.828,-4.357 -2.981,0.638 -5.63,2.16 -7.76,4.245 0.353,-0.029 0.69,-0.111 1.05,-0.111 2.162,0 4.173,0.591 5.973,1.545 0.789,-2.094 1.911,-3.993 3.241,-5.704 -0.253,-0.014 -0.492,-0.081 -0.748,-0.081 -0.594,0 -1.179,0.038 -1.756,0.106 0.867,-0.186 1.774,-0.249 2.686,-0.284 3.271,-4.084 7.912,-6.888 13.195,-7.514 -4.785,1.025 -8.967,3.744 -11.947,7.519 5.927,0.249 10.975,3.824 13.572,8.941 0,-0.078 -0.011,-0.153 -0.011,-0.232 0,-5.864 1.56,-11.337 4.253,-15.988 -1.166,-0.224 -2.356,-0.379 -3.586,-0.379 -0.771,0 -1.532,0.05 -2.281,0.139 1.377,-0.295 2.802,-0.451 4.264,-0.451 0.672,0 1.33,0.059 1.986,0.123 4.569,-7.502 12.114,-12.767 20.887,-13.807 -8.127,1.74 -14.988,6.968 -19.173,14.066 5.211,0.983 9.735,3.961 12.842,8.147 1.32,-8.73 5.472,-16.485 11.435,-22.308 -0.626,-0.043 -1.248,-0.101 -1.885,-0.101 -1.089,0 -2.162,0.07 -3.219,0.196 1.824,-0.391 3.714,-0.591 5.644,-0.617 6.787,-6.374 15.808,-10.288 25.75,-10.288 0.547,0 1.079,0.06 1.62,0.083 0.863,-0.059 1.72,-0.143 2.598,-0.143 9.155,0 17.529,3.353 24.105,8.893 1.151,-0.141 2.315,-0.234 3.503,-0.234 2.062,0 4.075,0.22 6.018,0.636 -1.058,-0.126 -2.131,-0.196 -3.219,-0.196 -1.848,0 -3.649,0.203 -5.399,0.557 7.012,6.284 11.797,15.145 12.931,25.169 2.925,-5.909 8.356,-10.242 14.86,-11.464 -4.185,-7.098 -11.046,-12.326 -19.173,-14.066 8.782,1.041 16.334,6.315 20.903,13.83 0.652,-0.064 1.3,-0.146 1.97,-0.146 1.461,0 2.887,0.156 4.263,0.45 -0.749,-0.088 -1.509,-0.137 -2.281,-0.137 -1.227,0 -2.416,0.162 -3.583,0.383 2.691,4.651 4.25,10.121 4.25,15.983 0,0.079 -0.01,0.154 -0.011,0.233 2.598,-5.117 7.645,-8.692 13.573,-8.942 -2.981,-3.775 -7.162,-6.494 -11.948,-7.52 5.284,0.627 9.924,3.431 13.196,7.515 0.911,0.036 1.818,0.099 2.686,0.284 -0.577,-0.068 -1.163,-0.105 -1.756,-0.105 -0.257,0 -0.496,0.066 -0.749,0.079 1.331,1.711 2.453,3.61 3.241,5.705 1.801,-0.955 3.811,-1.545 5.973,-1.545 0.361,0 0.698,0.082 1.051,0.111 -2.13,-2.085 -4.78,-3.606 -7.76,-4.245 3.405,0.404 6.438,2.015 8.828,4.358 0.186,0.031 0.383,0.021 0.567,0.06 -0.177,-0.021 -0.361,-0.019 -0.54,-0.033 2.6,2.561 4.33,6.041 4.839,9.95 l -1.066,0 c -0.463,-3.904 -2.17,-7.398 -4.777,-9.993 -2.53,0.023 -4.871,0.846 -6.85,2.209 0.744,2.248 1.197,4.642 1.197,7.16 0,0.213 -0.042,0.413 -0.048,0.624 l -1.438,0 c 0.013,-0.314 0.069,-0.618 0.069,-0.936 0,-2.076 -0.354,-4.053 -0.881,-5.954 -2.027,1.754 -3.512,4.153 -4.243,6.89 l -1.696,0 c 0.847,-3.35 2.897,-6.193 5.644,-8.021 -0.762,-2.271 -1.883,-4.358 -3.286,-6.214 -7.046,0.928 -12.608,6.779 -13.558,14.235 l -2.984,0 c 0.427,-2.054 0.726,-4.157 0.726,-6.346 0,-5.502 -1.411,-10.662 -3.872,-15.122 -8.706,2.457 -15.154,10.814 -15.154,20.844 0,0.213 0.04,0.413 0.046,0.624 l -4.053,0 c 0.445,-2.216 0.752,-4.479 0.752,-6.822 0,-8.125 -2.822,-15.594 -7.524,-21.611 4.199,6.283 6.663,13.878 6.663,22.066 0,2.179 -0.237,4.29 -0.577,6.367 l -0.516,0 c 0.379,-2.171 0.644,-4.382 0.644,-6.668 0,-9.515 -3.383,-18.2 -8.949,-24.896 -1.128,-1.145 -2.357,-2.188 -3.629,-3.183 -11.235,4.153 -19.314,15.482 -19.314,28.842 0,2.032 0.25,3.989 0.61,5.905 l -6.214,0 c 0.187,-1.382 0.289,-2.795 0.289,-4.235 0,-14.324 -9.282,-26.311 -21.791,-29.62 -7.15,6.97 -11.668,16.777 -11.668,27.73 0,2.094 0.223,4.126 0.543,6.125 l -5.336,0 c -0.34,-2.072 -0.538,-4.194 -0.538,-6.367 0,-0.754 0.07,-1.489 0.111,-2.234 -2.584,-5.475 -7.254,-9.621 -12.913,-11.239 -2.474,4.469 -3.89,9.645 -3.89,15.164 0,1.593 0.135,3.151 0.364,4.676 l -2.914,0 c -1.517,-6.642 -6.757,-11.708 -13.266,-12.564 -1.404,1.855 -2.525,3.942 -3.287,6.213 2.265,1.506 3.967,3.75 5.002,6.351 l -1.62,0 C 22.691,-2.034 21.449,-3.834 19.847,-5.22 19.384,-3.549 19.098,-1.805 19.025,0 L 17.64,0 c 0.108,-2.13 0.469,-4.186 1.106,-6.114 C 16.768,-7.478 14.426,-8.3 11.897,-8.323 9.664,-6.101 8.05,-3.229 7.336,0 L 6.304,0 c 0.748,-3.226 2.363,-6.087 4.588,-8.28 m 57.759,-22.611 c -5.734,6.127 -9.306,14.162 -9.574,23.013 0.517,1.231 0.909,2.524 1.199,3.859 -0.037,-0.703 -0.121,-1.394 -0.121,-2.106 0,-9.386 3.191,-17.994 8.496,-24.766 m 49.377,-4.859 c -6.138,-4.369 -13.689,-6.98 -21.894,-6.98 -6.377,0 -12.377,1.558 -17.62,4.301 -1.655,1.086 -3.183,2.344 -4.647,3.678 11.262,2.025 20.316,10.629 23.345,21.86 2.342,-11.028 10.378,-19.84 20.816,-22.859 m 3.999,0.171 c -0.577,0.148 -1.159,0.286 -1.722,0.471 8.655,6.609 14.304,16.71 14.571,28.145 0.132,-0.47 0.257,-0.943 0.42,-1.4 -0.621,-10.928 -5.637,-20.636 -13.269,-27.216 m -16.244,-8.067 c 4.809,1.569 9.199,4.088 12.971,7.341 0.122,0.083 0.228,0.184 0.349,0.269 0.588,-0.146 1.18,-0.274 1.781,-0.382 -4.371,-3.488 -9.471,-6.053 -15.101,-7.228 m -25.829,4.314 c 5.064,-2.397 10.735,-3.78 16.753,-3.78 7.211,0 13.932,1.968 19.688,5.327 -4.223,-3.121 -9.089,-5.367 -14.375,-6.439 -1.199,-0.121 -2.413,-0.19 -3.642,-0.19 -6.712,0 -12.991,1.866 -18.424,5.082 m -9.859,4.166 c 0.818,0.037 1.628,0.098 2.427,0.202 4.868,-4.652 10.831,-8.096 17.534,-9.641 -7.622,1.01 -14.512,4.412 -19.961,9.439 m -12.222,24.995 c 0.266,0.467 0.52,0.942 0.752,1.431 0.689,-9.461 5.028,-17.936 11.697,-24.105 0.431,-0.481 0.938,-0.88 1.39,-1.338 -0.737,-0.159 -1.491,-0.268 -2.246,-0.365 -6.442,6.227 -10.747,14.776 -11.593,24.377 m 126.544,0.254 c 5.25,0.622 9.493,4.636 10.871,9.917 l -0.849,0 c -1.256,-4.978 -5.118,-8.867 -10.022,-9.917"
             style="fill:#28436d;fill-opacity:1;fill-rule:nonzero;stroke:none"
             id="path74"
             inkscape:connector-curvature="0" /></g></g></g></g></svg>